{"glyphs":{"0":{"ha":508,"x_min":0,"x_max":0,"o":"m 306 746 b 453 427 444 712 448 541 b 459 209 457 355 465 281 b 393 39 454 148 440 82 b 198 2 343 -9 263 -18 b 74 119 141 20 98 65 b 49 324 46 184 49 255 b 53 547 48 398 51 473 b 62 557 53 552 57 555 b 65 584 63 566 63 575 b 102 682 69 620 80 653 b 306 746 150 744 231 764 m 256 729 b 255 729 255 729 255 729 b 256 729 255 729 255 729 m 259 729 b 259 729 262 730 265 732 m 265 18 b 270 18 269 16 271 17 b 265 18 268 18 266 18 m 275 18 b 276 18 275 18 276 18 b 275 18 276 18 275 18 m 357 87 b 398 259 390 139 398 199 b 391 453 398 324 394 388 b 362 629 389 513 385 573 b 318 694 352 653 338 676 b 282 720 308 705 296 713 b 257 728 280 721 262 726 b 245 723 253 727 249 725 b 225 705 237 718 231 711 b 195 642 209 686 201 665 b 185 559 187 615 185 587 b 185 556 185 558 185 557 b 193 547 190 554 193 551 b 188 327 192 474 192 400 b 194 127 185 261 180 192 b 269 20 203 86 227 37 b 271 19 270 20 270 20 b 299 31 281 23 290 25 b 357 87 323 44 342 65 "},"1":{"ha":343,"x_min":0,"x_max":0,"o":"m 137 644 b 110 616 129 634 122 621 b 44 610 89 608 66 607 b 13 628 40 610 2 616 b 38 641 20 635 29 637 b 61 652 46 644 54 648 b 104 680 76 660 90 670 b 144 713 118 690 131 701 b 145 747 144 724 144 736 b 163 760 145 755 157 759 b 208 766 178 765 193 766 b 272 747 220 766 271 766 b 285 377 278 624 282 500 b 289 190 286 314 289 252 b 290 101 289 160 290 131 b 290 53 290 85 290 69 b 277 8 290 36 292 19 b 222 -4 262 -4 240 -4 b 168 8 205 -5 182 -3 b 153 53 152 19 154 36 b 151 101 152 69 151 85 b 148 193 150 132 149 162 b 146 377 146 254 146 315 b 144 655 145 469 144 562 b 137 644 142 651 139 648 "},"2":{"ha":478,"x_min":0,"x_max":0,"o":"m 405 51 b 436 37 408 50 444 48 b 370 -2 419 15 396 4 b 308 -10 349 -8 329 -12 b 222 13 278 -8 250 3 b 169 25 206 18 187 26 b 155 9 164 19 160 14 b 128 -1 151 2 135 1 b 83 -2 113 -3 98 -3 b 43 18 74 -2 33 2 b 84 79 54 40 70 59 b 122 136 96 98 109 117 b 196 260 148 177 172 218 b 303 492 237 334 276 412 b 285 722 327 564 336 659 b 218 764 269 741 245 765 b 116 705 178 762 138 737 b 84 593 93 672 83 633 b 95 527 85 570 88 549 b 133 460 103 501 118 481 b 93 442 144 446 98 442 b 39 456 87 442 38 441 b 43 499 39 471 42 485 b 43 540 44 513 43 527 b 52 617 44 566 46 592 b 76 683 58 640 65 662 b 120 737 88 704 103 720 b 352 745 179 797 285 792 b 426 643 387 720 412 684 b 429 506 441 599 438 550 b 382 372 420 459 401 416 b 319 245 362 329 341 287 b 244 124 296 204 270 163 b 182 40 225 96 205 66 b 236 23 201 36 219 31 b 330 -4 265 10 298 -7 b 362 40 354 -2 364 17 b 405 51 362 51 400 51 "},"3":{"ha":501,"x_min":0,"x_max":0,"o":"m 45 523 b 46 556 44 534 46 545 b 45 590 46 568 45 579 b 53 647 46 609 48 628 b 111 734 62 682 82 713 b 185 773 134 751 157 766 b 288 777 219 781 254 782 b 443 675 352 768 416 735 b 408 488 472 612 447 541 b 262 386 371 439 320 404 b 420 265 327 365 383 324 b 433 77 456 208 471 136 b 259 -8 395 20 324 -5 b 94 52 197 -11 138 8 b 49 138 70 75 56 106 b 45 193 46 156 45 175 b 46 220 45 202 47 211 b 45 248 46 230 44 238 b 89 261 46 261 81 261 b 134 248 94 261 137 259 b 121 219 131 238 125 229 b 114 193 118 210 116 201 b 107 138 110 175 107 157 b 132 52 106 108 113 76 b 265 17 160 14 223 -3 b 342 131 310 39 340 81 b 284 284 345 186 318 242 b 228 340 267 305 248 322 b 183 381 213 353 196 366 b 180 386 181 382 179 384 b 183 390 179 388 181 389 b 236 439 199 408 219 423 b 295 501 258 458 278 478 b 339 663 328 547 351 606 b 250 760 331 707 293 747 b 182 754 228 766 204 761 b 122 704 156 744 136 730 b 108 620 109 679 105 649 b 116 570 109 603 112 587 b 134 523 120 554 129 539 b 89 510 137 512 94 510 b 45 523 80 510 46 510 "},"4":{"ha":543,"x_min":0,"x_max":0,"o":"m 422 -4 b 367 8 404 -5 382 -3 b 352 53 352 19 353 36 b 351 101 351 69 351 85 b 348 193 350 132 349 162 b 345 377 346 254 346 315 b 345 414 345 389 345 401 b 291 413 327 413 309 413 b 219 409 267 412 243 411 b 186 407 208 409 197 408 b 173 405 184 407 172 405 b 167 404 171 405 169 404 b 105 400 147 398 126 398 b 72 420 103 400 58 408 b 158 491 101 444 131 466 b 230 566 183 515 208 539 b 344 721 272 614 310 667 b 344 747 344 730 344 739 b 363 760 344 755 357 759 b 408 766 377 765 393 766 b 472 747 420 766 471 766 b 484 377 478 624 481 500 b 489 190 486 314 488 252 b 490 101 489 160 489 131 b 490 53 490 85 490 69 b 476 8 489 36 491 19 b 422 -4 461 -4 440 -4 m 291 422 b 345 422 309 421 327 422 b 343 623 344 489 343 556 b 301 560 330 602 316 580 b 243 483 282 534 263 508 b 195 424 227 464 212 443 b 221 423 204 424 212 423 b 291 422 244 422 268 422 "},"5":{"ha":533,"x_min":0,"x_max":0,"o":"m 405 561 b 474 430 439 524 459 477 b 461 128 505 331 498 224 b 367 16 442 81 414 39 b 271 -3 338 1 304 -4 b 189 14 243 -3 213 0 b 101 251 107 63 96 165 b 121 251 101 256 121 256 b 261 28 127 163 160 46 b 273 34 266 30 272 33 b 313 70 289 43 302 56 b 365 182 338 103 354 143 b 384 443 390 265 395 357 b 358 552 380 479 373 518 b 330 595 351 567 342 584 b 253 606 309 613 278 613 b 175 550 220 596 194 576 b 177 467 176 522 177 495 b 167 383 178 440 180 407 b 166 381 167 382 166 382 b 141 371 162 375 146 372 b 98 370 127 369 112 369 b 60 381 89 370 66 372 b 45 467 44 405 46 439 b 44 555 45 497 44 526 b 48 731 45 614 47 673 b 51 737 48 734 49 736 b 49 743 50 739 49 741 b 102 758 50 758 92 758 b 298 758 168 758 233 758 b 351 743 304 758 352 758 b 298 727 350 727 308 727 b 166 727 254 727 210 727 b 175 563 169 673 173 618 b 285 613 204 594 243 613 b 405 561 330 613 376 594 m 252 25 b 256 26 252 25 254 25 b 252 25 254 25 252 25 "},"6":{"ha":503,"x_min":0,"x_max":0,"o":"m 420 49 b 126 84 334 -31 201 12 b 47 249 81 126 57 190 b 50 437 36 311 39 375 b 202 748 71 551 122 662 b 233 759 210 755 223 757 b 284 761 249 762 267 762 b 330 737 290 761 345 753 b 175 434 250 654 197 547 b 163 275 165 382 160 328 b 166 235 163 262 164 249 b 263 344 186 281 217 322 b 407 333 310 367 365 364 b 420 49 495 268 499 123 m 197 120 b 276 26 214 83 238 43 b 403 58 320 6 369 28 b 406 324 476 125 482 257 b 336 356 386 341 362 353 b 247 326 304 358 272 345 b 169 212 209 298 185 256 b 197 120 175 180 183 148 "},"7":{"ha":499,"x_min":0,"x_max":0,"o":"m 335 281 b 293 138 321 233 308 185 b 268 63 285 113 278 87 b 254 29 264 52 260 40 b 231 -6 247 17 238 7 b 196 -4 228 -12 198 -12 b 185 40 193 11 186 25 b 185 79 184 53 184 66 b 191 160 186 106 188 133 b 251 447 203 256 226 353 b 342 726 276 542 306 634 b 345 731 343 728 344 729 b 140 715 277 726 208 720 b 91 718 124 714 107 714 b 70 729 85 719 72 721 b 125 747 65 746 117 747 b 385 745 212 747 298 746 b 413 746 395 746 406 746 b 463 740 429 746 447 745 b 483 726 464 740 486 733 b 427 566 464 673 446 619 b 335 281 394 472 363 377 "},"8":{"ha":526,"x_min":0,"x_max":0,"o":"m 410 318 b 483 126 461 271 504 197 b 350 11 466 66 409 24 b 134 52 279 -6 195 11 b 39 245 70 95 36 168 b 135 467 43 327 90 402 b 165 479 141 475 156 477 b 168 479 166 479 167 479 b 94 594 133 510 104 548 b 199 741 77 668 132 723 b 394 698 265 759 342 745 b 443 603 421 674 441 640 b 416 480 445 561 431 519 b 372 360 401 440 385 401 b 369 352 371 357 370 355 b 410 318 384 342 397 331 m 104 644 b 180 481 91 580 133 523 b 215 481 192 482 203 481 b 260 458 223 480 272 475 b 243 433 254 449 249 441 b 292 402 259 422 276 412 b 339 509 306 439 324 473 b 373 645 357 552 379 596 b 314 731 369 681 346 714 b 104 644 244 769 120 728 m 440 87 b 423 288 488 150 470 230 b 366 343 406 309 387 327 b 336 230 354 306 339 269 b 283 230 336 219 286 219 b 269 303 276 253 269 278 b 282 373 269 327 274 350 b 289 395 284 381 287 388 b 239 426 272 405 255 416 b 162 211 197 361 164 290 b 189 94 161 170 167 128 b 266 27 208 65 233 39 b 440 87 328 4 401 36 "},"9":{"ha":503,"x_min":0,"x_max":0,"o":"m 454 505 b 451 318 465 443 463 380 b 299 7 431 203 379 92 b 269 -5 292 -1 279 -3 b 218 -7 252 -8 235 -8 b 172 17 212 -6 156 1 b 327 320 252 100 304 207 b 339 479 337 372 341 426 b 336 519 338 492 337 506 b 239 410 315 473 284 432 b 94 422 192 387 137 391 b 82 706 6 487 2 632 b 376 670 168 785 301 742 b 454 505 420 628 444 564 m 255 428 b 332 542 292 456 317 498 b 305 635 327 574 318 606 b 226 729 287 671 264 712 b 98 696 181 748 132 727 b 96 431 25 629 19 498 b 166 399 115 414 140 401 b 255 428 198 396 229 409 "},"\u0000":{"ha":0,"x_min":0,"x_max":0,"o":""},"\n":{"ha":0,"x_min":0,"x_max":0,"o":""},"\r":{"ha":0,"x_min":0,"x_max":0,"o":""}," ":{"ha":360,"x_min":0,"x_max":0,"o":""},"!":{"ha":254,"x_min":0,"x_max":0,"o":"m 196 -144 b 203 -222 198 -170 200 -196 b 182 -236 203 -230 188 -234 b 132 -242 166 -241 149 -242 b 82 -236 116 -242 98 -241 b 62 -222 78 -235 61 -230 b 66 -144 63 -196 64 -170 b 85 -130 66 -136 78 -132 b 131 -125 100 -126 115 -125 b 196 -144 143 -125 195 -125 m 92 13 b 86 105 89 44 88 74 b 49 774 72 328 57 551 b 71 789 48 783 64 787 b 124 796 88 795 107 796 b 178 789 142 796 161 795 b 200 774 183 788 200 783 b 197 584 200 711 199 648 b 188 250 194 473 191 362 b 183 81 186 194 184 138 b 179 -1 182 54 183 25 b 167 -43 176 -15 171 -29 b 154 -80 164 -56 162 -68 b 120 -80 151 -86 124 -86 b 104 -34 111 -66 108 -50 b 92 13 99 -18 94 -3 "},"\"":{"ha":335,"x_min":0,"x_max":0,"o":"m 78 971 b 156 951 97 971 146 974 b 160 932 158 945 161 939 b 141 918 160 924 146 919 b 112 896 121 912 120 911 b 106 885 110 893 109 889 b 93 866 102 879 98 872 b 56 836 83 853 70 843 b 43 838 53 835 39 836 b 69 914 68 855 89 887 b 33 924 56 915 42 917 b 21 946 26 930 25 938 b 78 971 10 968 68 970 m 311 951 b 315 932 313 945 315 939 b 296 918 315 924 301 919 b 267 896 276 912 275 911 b 261 885 265 893 263 889 b 248 866 257 879 253 872 b 211 836 238 853 225 843 b 198 838 208 835 194 836 b 224 914 223 855 244 887 b 188 924 211 915 197 917 b 176 946 181 930 180 938 b 233 971 165 968 223 970 b 311 951 252 971 301 974 "},"#":{"ha":551,"x_min":0,"x_max":0,"o":"m 472 259 b 526 243 479 259 527 258 b 472 228 524 227 483 228 b 411 228 452 228 432 228 b 410 140 412 199 411 169 b 394 19 409 99 403 59 b 345 19 392 8 348 8 b 317 143 332 59 322 101 b 308 228 313 171 310 199 b 245 228 287 228 266 228 b 244 140 245 199 245 169 b 227 19 242 99 236 59 b 178 19 225 8 181 8 b 150 143 165 59 155 101 b 141 228 146 171 143 199 b 78 228 120 228 99 228 b 25 243 72 228 24 228 b 78 259 26 259 68 259 b 138 259 98 259 118 259 b 138 261 138 259 138 260 b 135 296 137 273 136 285 b 78 296 116 296 97 296 b 25 312 72 296 24 297 b 78 327 26 328 68 327 b 133 327 96 327 115 327 b 123 504 129 386 126 445 b 180 520 122 520 171 520 b 237 504 190 520 236 520 b 243 327 239 445 242 386 b 299 327 262 327 281 327 b 290 504 296 386 293 445 b 347 520 289 520 338 520 b 404 504 357 520 403 520 b 410 327 406 445 409 386 b 472 327 431 327 452 327 b 526 312 479 327 527 327 b 472 296 524 296 483 296 b 411 296 452 296 431 296 b 411 261 411 285 411 273 b 411 259 411 260 411 259 b 472 259 432 259 452 259 m 245 259 b 305 259 265 259 285 259 b 305 261 305 259 305 260 b 302 296 304 273 303 285 b 244 296 283 296 263 296 b 245 261 244 285 245 273 b 245 259 245 260 245 259 "},"$":{"ha":654,"x_min":0,"x_max":0,"o":"m 587 206 b 588 41 626 158 632 88 b 457 -25 555 6 506 -15 b 448 -124 456 -58 454 -91 b 405 -136 445 -137 414 -136 b 363 -124 395 -136 367 -137 b 343 -32 354 -93 347 -63 b 209 15 296 -27 250 -12 b 130 77 181 33 155 54 b 92 117 116 90 104 103 b 75 136 87 123 78 129 b 74 160 71 143 73 152 b 131 162 75 173 125 170 b 150 135 138 153 148 146 b 155 112 151 127 152 119 b 177 67 160 96 168 80 b 259 0 199 37 226 16 b 342 -24 285 -12 313 -21 b 332 72 337 8 335 40 b 318 257 327 134 322 196 b 123 290 252 259 185 261 b 48 361 91 305 63 328 b 38 458 35 391 31 426 b 143 617 51 523 90 579 b 295 670 187 648 241 665 b 291 768 294 703 292 735 b 309 781 290 776 304 779 b 354 786 323 785 339 786 b 417 768 366 787 416 787 b 424 656 419 731 422 694 b 455 643 435 653 445 648 b 526 586 481 629 505 607 b 594 409 570 538 595 474 b 581 409 594 406 581 407 b 487 606 581 484 546 560 b 425 638 469 619 448 630 b 430 572 427 616 428 594 b 447 274 436 473 441 373 b 587 206 500 266 553 249 m 193 315 b 317 282 228 289 272 283 b 297 642 309 402 303 522 b 275 633 290 640 282 636 b 162 500 223 606 181 555 b 193 315 140 439 135 358 m 570 85 b 554 178 581 117 573 150 b 448 246 528 214 489 235 b 450 224 449 239 449 231 b 457 49 453 166 455 107 b 457 -12 457 28 458 8 b 504 10 473 -7 489 1 b 570 85 532 27 559 53 "},"%":{"ha":985,"x_min":0,"x_max":0,"o":"m 436 578 b 273 351 419 485 372 379 b 124 365 225 337 170 343 b 35 486 77 387 42 433 b 109 799 21 593 56 706 b 137 809 113 806 129 808 b 166 812 147 811 156 812 b 199 837 176 822 187 830 b 329 837 238 857 288 855 b 436 578 428 794 453 674 m 282 371 b 421 597 366 411 408 510 b 326 831 433 684 410 788 b 187 820 281 854 226 853 b 178 811 184 817 181 814 b 184 811 180 811 182 811 b 227 789 193 810 237 807 b 168 641 200 743 180 693 b 149 491 156 592 147 541 b 177 380 149 452 149 410 b 282 371 206 349 247 354 m 862 280 b 969 21 961 237 986 117 b 806 -206 952 -72 905 -178 b 657 -192 758 -220 703 -213 b 568 -71 610 -170 575 -124 b 642 242 554 37 589 149 b 670 252 646 249 662 251 b 700 255 680 254 690 255 b 732 280 709 265 720 273 b 862 280 771 300 821 298 m 954 40 b 859 275 966 127 943 231 b 720 263 814 297 759 296 b 711 255 717 260 714 257 b 717 254 713 254 715 254 b 760 232 726 254 770 250 b 701 84 733 186 713 136 b 682 -66 689 35 681 -16 b 710 -177 683 -105 682 -147 b 815 -186 739 -208 780 -203 b 954 40 900 -146 941 -47 m 688 876 b 639 630 672 794 656 712 b 540 203 609 487 575 345 b 485 -13 522 131 504 59 b 457 -120 476 -48 467 -84 b 441 -176 452 -139 448 -158 b 406 -225 434 -196 420 -210 b 360 -234 395 -235 373 -234 b 323 -222 350 -233 328 -233 b 314 -188 318 -210 314 -201 b 318 -160 313 -178 315 -169 b 333 -100 323 -140 328 -120 b 363 19 343 -61 353 -21 b 559 876 434 303 499 589 b 578 889 561 884 571 887 b 624 895 593 894 609 894 b 669 889 638 895 655 893 b 688 876 672 888 690 883 "},"&":{"ha":765,"x_min":0,"x_max":0,"o":"m 817 -133 b 811 -147 824 -138 815 -145 b 774 -155 800 -153 786 -154 b 698 -142 751 -157 716 -158 b 647 -99 681 -128 664 -114 b 521 -193 613 -140 571 -172 b 177 -170 413 -238 278 -231 b 27 99 84 -114 18 -12 b 95 254 32 156 57 211 b 217 353 130 294 173 324 b 226 358 220 355 223 356 b 170 484 204 398 185 440 b 165 650 153 536 142 598 b 270 737 184 694 225 725 b 545 613 372 764 523 733 b 491 460 555 559 525 501 b 378 364 460 422 418 393 b 326 327 361 352 343 340 b 505 123 379 254 439 186 b 671 -21 558 72 614 25 b 710 112 692 20 706 66 b 683 281 716 169 709 229 b 554 425 653 340 607 386 b 589 443 542 434 585 442 b 627 441 601 444 615 443 b 650 433 631 440 647 438 b 681 366 662 411 671 389 b 725 207 702 316 716 261 b 719 41 734 152 733 95 b 689 -35 712 14 702 -11 b 817 -133 731 -68 774 -101 m 257 715 b 269 411 131 654 217 494 b 280 393 272 405 276 399 b 341 438 301 407 321 422 b 442 572 384 473 426 517 b 400 714 457 623 451 684 b 257 715 357 740 301 737 m 533 -164 b 629 -84 570 -144 602 -117 b 626 -81 628 -83 627 -82 b 272 284 499 27 367 144 b 176 141 229 245 193 200 b 261 -144 147 36 180 -72 b 319 -181 279 -159 298 -172 b 354 -193 330 -186 342 -190 b 377 -198 361 -195 372 -197 b 533 -164 428 -204 486 -189 "},"'":{"ha":179,"x_min":0,"x_max":0,"o":"m 156 951 b 160 932 158 945 161 939 b 141 918 160 924 146 919 b 112 896 121 912 120 911 b 106 885 110 893 109 889 b 93 866 102 879 98 872 b 56 836 83 853 70 843 b 43 838 53 835 39 836 b 69 914 68 855 89 887 b 33 924 56 915 42 917 b 21 946 26 930 25 938 b 78 971 10 968 68 970 b 156 951 97 971 146 974 "},"(":{"ha":440,"x_min":0,"x_max":0,"o":"m 368 918 b 238 673 314 843 270 760 b 173 181 181 516 156 348 b 229 -62 182 98 200 16 b 274 -174 242 -100 258 -137 b 328 -285 290 -212 310 -248 b 274 -289 334 -296 281 -297 b 119 -38 206 -217 155 -129 b 53 461 57 120 32 292 b 242 928 75 630 141 791 b 272 940 248 936 263 938 b 323 942 288 943 306 943 b 368 918 331 941 381 936 "},")":{"ha":440,"x_min":0,"x_max":0,"o":"m 334 678 b 381 181 393 520 408 347 b 166 -289 353 11 285 -163 b 111 -285 158 -297 106 -296 b 172 -160 132 -243 153 -202 b 221 -33 191 -119 207 -76 b 71 918 325 284 266 648 b 117 942 59 936 109 941 b 168 940 134 943 152 943 b 198 928 175 939 193 936 b 334 678 255 851 300 767 "},"*":{"ha":313,"x_min":0,"x_max":0,"o":"m 257 831 b 280 812 266 830 298 824 b 243 796 269 805 255 802 b 217 780 234 791 225 786 b 190 763 208 775 199 769 b 228 736 203 755 215 745 b 261 718 238 729 250 724 b 277 704 269 715 276 713 b 240 699 278 695 244 698 b 217 713 230 703 223 705 b 201 730 212 719 207 725 b 174 746 193 736 184 741 b 206 640 176 708 180 669 b 132 640 220 624 118 620 b 146 737 152 668 150 704 b 124 725 139 733 131 729 b 92 697 111 717 100 709 b 49 692 85 687 59 690 b 43 705 40 693 26 701 b 104 728 64 710 85 716 b 143 756 117 737 131 745 b 142 762 143 758 143 760 b 37 804 108 779 73 792 b 42 822 19 811 26 819 b 103 819 59 826 87 828 b 136 799 114 813 125 806 b 131 826 134 808 133 817 b 114 887 126 846 118 866 b 180 887 113 898 179 902 b 174 823 180 865 175 844 b 173 782 174 809 173 796 b 178 787 175 784 176 785 b 190 805 182 792 188 799 b 194 823 191 813 189 816 b 257 831 204 837 244 833 "},"+":{"ha":407,"x_min":0,"x_max":0,"o":"m 334 365 b 387 350 340 365 388 365 b 334 334 386 334 344 334 b 248 334 305 334 277 334 b 248 194 248 288 248 241 b 195 179 248 179 204 179 b 142 194 186 179 142 179 b 142 334 142 241 142 288 b 74 334 119 334 97 334 b 21 350 68 334 20 335 b 74 365 22 366 64 365 b 142 365 97 365 119 365 b 142 508 142 413 142 460 b 195 523 142 523 186 523 b 248 508 204 523 248 523 b 248 365 248 460 248 413 b 334 365 277 365 305 365 "},",":{"ha":172,"x_min":0,"x_max":0,"o":"m 152 49 b 156 30 154 42 156 37 b 137 16 156 22 142 17 b 108 -6 117 10 116 8 b 102 -17 106 -10 104 -13 b 89 -37 98 -24 94 -30 b 52 -66 79 -49 66 -59 b 39 -64 49 -67 35 -66 b 64 11 64 -48 85 -15 b 29 22 52 12 38 15 b 17 43 22 27 20 36 b 74 68 6 65 64 68 b 152 49 93 69 142 72 "},"-":{"ha":306,"x_min":0,"x_max":0,"o":"m 255 402 b 290 371 259 402 291 401 b 255 339 289 339 262 339 b 50 339 187 339 119 339 b 15 371 46 339 15 341 b 50 402 16 403 44 402 b 255 402 119 402 187 402 "},".":{"ha":168,"x_min":0,"x_max":0,"o":"m 149 30 b 149 1 150 20 153 10 b 97 -16 141 -15 113 -15 b 59 -14 84 -16 72 -16 b 32 -3 53 -13 37 -10 b 17 59 20 13 20 39 b 36 72 15 66 31 70 b 81 77 50 76 66 77 b 127 72 96 77 113 76 b 146 59 132 70 145 66 b 149 30 147 49 148 39 "},"/":{"ha":368,"x_min":0,"x_max":0,"o":"m 332 978 b 353 963 335 977 355 971 b 287 688 332 871 310 779 b 164 198 245 524 204 361 b 104 -46 144 116 124 35 b 75 -168 94 -86 83 -127 b 58 -290 67 -208 62 -248 b 7 -304 56 -305 17 -304 b -43 -290 2 -304 -47 -302 b -19 -220 -35 -266 -27 -243 b -2 -150 -12 -197 -8 -173 b 24 -14 8 -105 15 -59 b 118 476 55 149 88 312 b 211 963 148 639 177 801 b 232 978 213 972 224 975 b 282 984 248 983 265 983 b 332 978 298 984 317 982 "},":":{"ha":188,"x_min":0,"x_max":0,"o":"m 42 518 b 26 580 30 534 30 560 b 45 593 25 587 40 591 b 91 598 60 598 76 598 b 137 593 106 599 122 597 b 155 580 142 591 155 587 b 159 551 157 570 158 561 b 158 522 160 541 163 531 b 107 505 151 506 122 506 b 69 507 94 505 81 505 b 42 518 62 508 46 511 m 155 344 b 159 316 157 335 158 325 b 158 287 160 306 163 296 b 107 270 151 271 122 271 b 69 272 94 270 81 270 b 42 282 62 273 46 276 b 26 344 30 299 30 325 b 45 358 25 352 40 356 b 91 363 60 362 76 363 b 137 358 106 363 122 362 b 155 344 142 356 155 352 "},";":{"ha":194,"x_min":0,"x_max":0,"o":"m 45 518 b 30 580 33 534 33 560 b 48 593 28 587 43 591 b 94 598 63 598 79 598 b 140 593 109 599 125 597 b 158 580 145 591 158 587 b 162 551 160 570 161 561 b 161 522 163 541 166 531 b 110 505 154 506 125 506 b 72 507 97 505 85 505 b 45 518 65 508 49 511 m 163 314 b 167 295 165 307 168 302 b 148 281 167 287 153 282 b 119 259 128 275 127 273 b 113 248 117 255 116 252 b 100 228 109 241 105 235 b 63 199 90 216 77 206 b 50 201 60 198 46 199 b 76 276 75 218 96 250 b 40 287 63 277 49 280 b 28 308 33 292 32 301 b 85 333 17 330 75 333 b 163 314 104 334 153 337 "},"<":{"ha":333,"x_min":0,"x_max":0,"o":"m 306 260 b 309 248 314 254 314 254 b 309 244 310 247 311 245 b 307 241 309 242 308 241 b 295 236 304 238 298 237 b 252 235 281 233 266 233 b 208 252 236 238 221 241 b 187 269 201 257 194 263 b 140 308 171 282 156 295 b 29 384 105 335 69 366 b 22 391 25 385 23 387 b 50 422 27 404 39 412 b 83 454 62 432 73 443 b 140 531 105 478 124 503 b 170 542 145 539 162 540 b 221 544 187 545 204 545 b 267 520 229 543 279 538 b 199 443 247 492 224 466 b 122 388 176 421 151 401 b 162 356 133 375 149 365 b 211 321 178 343 195 333 b 267 285 230 309 248 297 b 296 266 276 279 286 273 b 306 260 299 264 303 262 "},"=":{"ha":306,"x_min":0,"x_max":0,"o":"m 64 396 b 21 429 59 396 20 397 b 64 462 22 462 56 462 b 241 462 123 462 182 462 b 285 429 246 462 286 460 b 241 396 284 395 249 396 b 64 396 182 396 123 396 m 241 360 b 285 328 246 360 286 359 b 241 295 284 294 249 295 b 64 295 182 295 123 295 b 21 328 59 295 20 296 b 64 360 22 361 56 360 b 241 360 123 360 182 360 "},">":{"ha":335,"x_min":0,"x_max":0,"o":"m 284 422 b 312 391 295 413 308 404 b 306 384 311 387 309 385 b 195 308 265 366 229 335 b 147 269 179 295 163 282 b 124 250 140 263 132 256 b 109 242 119 246 115 244 b 101 239 106 240 78 231 b 50 236 85 234 66 234 b 21 249 46 237 20 239 b 41 268 22 259 33 263 b 70 287 51 274 61 280 b 123 321 88 298 106 309 b 175 357 140 333 158 344 b 212 388 187 367 202 376 b 135 443 183 401 158 421 b 68 520 110 466 88 492 b 114 544 55 538 105 543 b 164 542 130 545 148 545 b 194 531 170 541 190 538 b 251 454 211 503 230 478 b 284 422 262 443 273 432 "},"?":{"ha":638,"x_min":0,"x_max":0,"o":"m 611 617 b 431 293 629 482 506 387 b 335 135 392 245 358 192 b 310 38 323 104 314 71 b 306 -13 307 21 306 4 b 306 -38 306 -21 306 -30 b 299 -62 306 -47 302 -54 b 252 -77 294 -77 265 -77 b 217 -76 240 -78 228 -77 b 191 -66 211 -75 195 -72 b 178 -40 186 -58 180 -50 b 176 -13 176 -32 176 -22 b 180 38 176 4 177 21 b 206 138 184 72 194 106 b 310 307 231 200 267 256 b 498 605 385 395 495 479 b 313 794 500 705 413 792 b 159 751 260 795 205 778 b 94 697 135 737 112 718 b 61 619 77 675 66 646 b 90 458 50 564 60 505 b 149 395 105 434 126 413 b 193 370 163 384 176 377 b 236 350 207 364 221 356 b 239 334 245 346 245 340 b 207 325 231 327 217 326 b 153 326 189 323 170 322 b 125 336 143 328 132 329 b 102 368 115 346 107 354 b 82 401 98 379 88 390 b 46 479 68 426 55 452 b 55 667 25 540 27 610 b 163 779 79 716 115 755 b 338 814 216 807 278 817 b 611 617 456 810 592 748 m 236 -125 b 301 -144 249 -125 300 -125 b 308 -222 303 -170 306 -196 b 287 -236 308 -230 293 -234 b 237 -242 271 -241 254 -242 b 188 -236 221 -242 203 -241 b 167 -222 183 -235 167 -230 b 171 -144 168 -196 169 -170 b 190 -130 171 -136 184 -132 b 236 -125 205 -126 221 -125 "},"@":{"ha":865,"x_min":0,"x_max":0,"o":"m 605 700 b 808 231 776 616 873 414 b 721 152 793 190 765 159 b 577 205 668 144 607 157 b 539 346 552 246 540 298 b 539 388 538 360 538 374 b 524 367 534 381 529 374 b 553 231 535 322 541 276 b 500 216 557 217 506 216 b 447 231 492 215 446 216 b 450 272 448 244 449 258 b 417 240 439 261 429 250 b 302 172 385 210 346 182 b 168 201 256 163 205 172 b 125 261 149 217 134 238 b 141 206 130 242 135 224 b 194 115 153 173 172 142 b 406 18 247 53 326 19 b 671 111 502 17 594 57 b 682 110 674 112 682 110 b 624 73 663 96 644 84 b 355 15 543 26 449 3 b 138 135 269 27 195 71 b 36 358 83 196 40 274 b 119 613 33 449 60 543 b 348 739 176 682 261 725 b 605 700 437 754 525 739 m 450 296 b 448 390 451 327 450 359 b 395 508 444 434 432 480 b 357 525 385 516 370 526 b 313 501 341 523 324 510 b 239 404 281 475 258 440 b 207 288 221 369 206 328 b 238 197 208 255 213 221 b 348 208 269 167 316 189 b 443 288 383 230 414 258 b 450 296 445 290 448 293 m 804 343 b 529 720 819 516 694 676 b 304 702 452 741 375 736 b 144 539 234 668 176 609 b 117 304 111 465 105 383 b 118 302 117 303 118 303 b 118 316 118 307 118 311 b 180 450 123 366 151 411 b 300 536 211 491 249 524 b 445 515 348 548 404 546 b 517 398 483 486 504 442 b 520 385 518 393 519 389 b 520 385 520 385 520 385 b 541 416 527 395 534 405 b 542 424 541 419 541 422 b 557 496 545 448 551 472 b 558 502 556 498 556 500 b 560 506 558 503 559 504 b 643 503 567 520 641 521 b 653 424 646 476 651 450 b 659 346 655 398 656 372 b 671 270 662 320 665 295 b 690 208 675 249 680 227 b 704 185 694 200 699 192 b 712 176 707 182 709 179 b 719 179 715 177 717 178 b 748 203 730 185 740 193 b 804 343 781 240 800 294 "},"A":{"ha":569,"x_min":0,"x_max":0,"o":"m 551 696 b 500 680 556 681 507 680 b 463 679 488 680 475 679 b 475 559 469 639 472 599 b 482 339 480 486 481 413 b 528 -89 483 195 490 52 b 453 -109 533 -107 462 -109 b 401 -103 437 -109 417 -108 b 379 -89 393 -101 381 -97 b 335 366 336 59 335 214 b 336 569 335 433 337 501 b 331 680 335 606 333 643 b 114 692 258 682 186 686 b 102 589 107 658 104 623 b 109 377 99 518 104 447 b 176 -55 120 232 136 86 b 115 -71 180 -69 121 -71 b 54 -55 104 -71 54 -71 b 47 203 53 31 48 117 b 50 457 45 288 46 372 b 78 682 54 532 59 608 b 81 695 79 686 80 691 b 74 696 79 695 77 696 b 49 708 70 696 43 698 b 87 715 54 716 75 716 b 153 857 102 765 123 814 b 217 923 171 882 189 907 b 328 931 249 941 293 941 b 445 771 405 910 428 836 b 459 707 451 750 455 728 b 486 708 468 707 477 707 b 532 705 501 709 517 709 b 551 696 537 704 549 703 m 279 919 b 275 917 279 919 277 918 b 279 919 277 917 278 918 m 119 713 b 329 704 189 707 259 704 b 322 771 327 726 325 749 b 308 867 319 803 317 837 b 287 904 304 881 297 894 b 275 916 284 908 279 912 b 273 917 274 916 273 916 b 263 914 269 916 264 915 b 252 908 259 912 255 911 b 232 894 245 904 238 900 b 197 862 219 884 208 873 b 146 785 176 839 160 812 b 119 713 134 762 125 737 "},"B":{"ha":685,"x_min":0,"x_max":0,"o":"m 650 337 b 657 179 655 285 658 231 b 656 101 657 153 656 127 b 653 25 655 76 656 50 b 560 -72 646 -25 613 -60 b 419 -33 509 -84 450 -77 b 389 23 406 -16 397 4 b 357 92 378 46 367 68 b 306 237 337 139 321 187 b 322 237 306 239 321 240 b 391 66 339 178 363 121 b 437 -10 404 40 419 14 b 494 -55 452 -30 471 -47 b 505 -43 498 -51 502 -47 b 521 -9 513 -32 518 -22 b 530 98 531 25 529 63 b 517 487 535 227 538 358 b 445 588 511 526 500 587 b 400 579 430 588 415 585 b 321 510 375 556 348 533 b 245 499 304 496 267 497 b 257 296 248 431 252 364 b 272 109 262 233 267 171 b 275 -78 278 47 288 -16 b 258 -89 274 -85 265 -87 b 217 -94 245 -93 231 -94 b 158 -78 201 -94 166 -94 b 118 134 128 -11 126 62 b 88 883 91 382 83 633 b 51 882 76 881 63 881 b 14 899 46 882 3 887 b 228 1004 69 957 147 993 b 404 971 289 1013 352 1003 b 514 825 460 938 506 890 b 460 646 522 761 499 698 b 420 599 448 629 434 614 b 538 587 460 605 503 602 b 619 491 581 569 607 531 b 650 337 635 440 644 389 m 382 656 b 449 816 420 702 446 758 b 393 961 451 870 438 924 b 231 990 352 994 283 1007 b 122 902 185 975 149 940 b 158 905 134 904 146 905 b 208 899 174 905 193 903 b 229 886 213 898 228 893 b 236 673 230 815 233 744 b 243 540 238 629 240 585 b 382 656 295 572 344 609 "},"C":{"ha":503,"x_min":0,"x_max":0,"o":"m 479 258 b 473 226 476 248 473 237 b 474 168 472 207 474 187 b 470 66 476 134 476 99 b 367 -58 459 12 426 -43 b 271 -60 336 -66 302 -65 b 171 -21 235 -53 200 -41 b 71 140 115 16 85 80 b 48 356 56 211 52 284 b 50 573 44 428 46 501 b 78 789 54 645 63 718 b 104 893 86 824 93 860 b 177 957 114 925 143 950 b 236 958 196 961 217 963 b 265 944 247 955 256 950 b 327 878 291 927 309 902 b 359 835 338 864 347 848 b 392 790 372 821 383 806 b 435 697 408 760 422 729 b 375 681 441 684 381 681 b 316 697 365 681 316 681 b 304 792 315 729 311 760 b 299 837 300 807 302 822 b 282 881 296 852 288 867 b 259 921 276 895 268 909 b 246 936 255 926 251 931 b 234 944 242 939 239 942 b 230 946 233 945 232 945 b 215 922 225 939 216 924 b 208 877 211 908 209 892 b 194 689 201 815 197 752 b 187 497 190 625 187 561 b 191 304 187 433 188 368 b 196 209 192 272 194 241 b 204 120 198 180 199 150 b 266 -20 212 69 227 19 b 289 -42 273 -27 280 -37 b 319 -52 297 -47 309 -51 b 396 -25 346 -55 375 -41 b 457 103 434 6 453 57 b 457 195 460 133 458 164 b 456 242 457 211 458 226 b 452 266 455 250 453 258 b 459 289 452 274 456 282 b 483 289 460 294 483 294 b 479 258 483 278 483 269 m 234 949 b 232 948 234 949 233 949 b 234 949 233 948 234 949 "},"D":{"ha":642,"x_min":0,"x_max":0,"o":"m 588 712 b 595 390 607 606 609 497 b 260 -95 570 199 498 -58 b 213 -93 245 -97 228 -97 b 210 -92 212 -93 211 -92 b 182 -94 201 -93 191 -94 b 123 -78 166 -94 130 -94 b 83 134 93 -11 91 62 b 53 886 56 383 48 635 b 73 899 53 894 67 897 b 123 905 89 904 106 904 b 173 899 139 905 157 903 b 193 886 178 898 193 893 b 201 673 195 815 198 744 b 222 296 207 547 213 421 b 237 109 227 233 232 171 b 243 -58 242 53 251 -3 b 313 -4 268 -42 292 -25 b 397 118 348 32 376 74 b 476 403 439 208 462 307 b 486 701 490 501 495 603 b 391 921 478 781 460 868 b 341 947 376 932 359 941 b 315 954 333 950 324 952 b 295 957 307 956 299 957 b 258 953 283 958 273 957 b 212 932 241 949 226 942 b 145 924 195 920 165 921 b 121 943 138 924 100 932 b 443 940 218 991 348 992 b 588 712 530 892 571 802 "},"E":{"ha":590,"x_min":0,"x_max":0,"o":"m 557 388 b 559 214 556 330 559 272 b 555 62 558 163 557 113 b 520 -60 554 22 558 -32 b 356 -76 476 -92 408 -80 b 242 -68 318 -74 280 -71 b 240 -78 241 -72 241 -75 b 223 -89 239 -85 229 -87 b 182 -94 210 -93 195 -94 b 123 -78 166 -94 130 -94 b 83 134 93 -11 91 62 b 53 886 56 383 48 635 b 73 899 53 894 67 897 b 123 905 89 904 106 904 b 173 899 139 905 157 903 b 193 886 178 898 193 893 b 200 698 195 823 197 760 b 434 716 278 704 356 710 b 474 714 448 717 461 716 b 498 706 480 713 494 711 b 462 688 508 692 469 689 b 201 671 375 683 288 677 b 201 671 201 671 201 671 b 222 296 207 546 213 421 b 237 109 227 233 232 171 b 245 -45 241 58 249 6 b 405 -56 298 -49 352 -52 b 428 -57 413 -56 420 -57 b 430 -57 428 -57 429 -57 b 450 -40 438 -53 444 -47 b 464 34 465 -18 465 9 b 455 211 462 93 459 152 b 439 388 451 270 447 330 b 498 404 436 403 490 404 b 557 388 508 404 557 404 m 431 -57 b 431 -57 435 -58 433 -57 m 115 916 b 67 930 108 916 65 916 b 142 979 72 964 113 975 b 242 974 175 983 209 976 b 463 961 316 971 390 968 b 498 943 468 960 508 957 b 475 934 494 937 480 935 b 436 933 463 932 448 931 b 265 956 379 939 322 947 b 183 969 238 961 211 968 b 161 961 173 969 165 971 b 163 930 158 951 159 939 b 115 916 168 919 119 916 "},"F":{"ha":496,"x_min":0,"x_max":0,"o":"m 115 916 b 67 930 108 916 65 916 b 142 979 72 964 113 975 b 242 974 175 983 209 976 b 463 961 316 971 390 968 b 498 943 468 960 508 957 b 475 934 494 937 480 935 b 436 933 463 932 448 931 b 265 956 379 939 322 947 b 183 969 238 961 211 968 b 161 961 173 969 165 971 b 163 930 158 951 159 939 b 115 916 168 919 119 916 m 474 714 b 498 706 480 713 494 711 b 462 688 508 692 469 689 b 201 671 375 683 288 677 b 201 671 201 671 201 671 b 222 296 207 546 213 421 b 237 109 227 233 232 171 b 240 -78 242 47 253 -16 b 223 -89 239 -85 229 -87 b 182 -94 210 -93 195 -94 b 123 -78 166 -94 130 -94 b 83 134 93 -11 91 62 b 53 886 56 383 48 635 b 73 899 53 894 67 897 b 123 905 89 904 106 904 b 173 899 139 905 157 903 b 193 886 178 898 193 893 b 200 698 195 823 197 760 b 434 716 278 704 356 710 b 474 714 448 717 461 716 "},"G":{"ha":622,"x_min":0,"x_max":0,"o":"m 611 66 b 567 45 623 50 576 46 b 517 47 551 43 533 44 b 488 57 511 48 492 51 b 464 120 475 77 468 98 b 464 110 464 117 464 114 b 425 -84 465 48 475 -34 b 224 -103 375 -132 285 -126 b 135 -42 189 -90 159 -69 b 89 53 112 -15 98 20 b 68 172 78 91 73 132 b 56 291 63 211 59 251 b 48 530 49 370 46 450 b 69 774 50 611 55 693 b 81 838 73 795 77 817 b 95 887 85 855 88 872 b 186 952 112 924 144 945 b 264 950 211 956 239 956 b 305 927 280 945 292 937 b 377 849 334 907 356 877 b 488 655 422 789 460 724 b 444 644 492 646 448 644 b 400 655 435 644 402 643 b 350 800 391 705 375 755 b 307 865 337 822 323 844 b 256 921 293 885 277 906 b 235 931 249 925 243 929 b 232 932 234 931 233 932 b 224 925 229 930 226 927 b 199 869 208 909 203 889 b 182 717 189 819 187 767 b 175 410 173 615 172 513 b 201 106 178 309 187 207 b 240 -24 208 60 217 17 b 311 -100 258 -56 281 -79 b 420 -59 353 -112 396 -94 b 449 58 445 -25 449 17 b 448 221 450 112 449 167 b 448 304 448 248 448 276 b 447 342 448 316 448 329 b 435 363 444 349 440 356 b 423 379 432 368 428 374 b 419 391 419 384 417 386 b 421 394 419 392 419 393 b 421 394 421 394 421 394 b 421 394 421 394 421 394 b 436 400 424 397 434 399 b 476 398 449 402 463 401 b 562 329 514 390 545 361 b 584 243 578 302 582 273 b 611 66 588 184 576 118 m 233 933 b 233 932 233 933 233 933 b 233 933 238 933 240 937 m 228 932 b 224 934 227 933 225 933 b 228 932 225 933 227 933 m 463 234 b 460 296 464 255 463 276 b 461 248 461 280 461 264 b 462 213 461 236 462 225 b 463 234 462 220 463 227 "},"H":{"ha":732,"x_min":0,"x_max":0,"o":"m 697 664 b 659 657 696 655 664 657 b 646 658 655 657 650 658 b 666 308 654 541 660 424 b 676 105 669 240 673 172 b 677 2 678 71 679 36 b 657 -101 675 -33 666 -67 b 617 -112 654 -113 626 -112 b 577 -101 607 -112 581 -112 b 544 16 563 -63 551 -24 b 535 130 538 53 537 92 b 515 536 528 265 521 400 b 509 662 513 578 511 620 b 371 656 463 661 417 659 b 233 642 325 652 278 648 b 231 642 232 642 231 642 b 251 296 236 526 242 411 b 266 109 255 233 261 171 b 269 -78 271 47 281 -16 b 251 -89 267 -85 258 -87 b 210 -94 238 -93 224 -94 b 151 -78 194 -94 159 -94 b 111 134 122 -11 119 62 b 81 618 94 294 84 456 b 22 625 61 616 38 617 b 52 645 -2 637 45 644 b 81 646 61 645 71 646 b 81 886 79 726 80 806 b 102 899 81 894 95 897 b 151 905 118 904 135 904 b 201 899 167 905 186 903 b 222 886 206 898 222 893 b 229 673 223 815 226 744 b 230 659 230 668 230 664 b 363 666 274 661 319 664 b 509 669 412 668 460 669 b 501 945 506 761 503 853 b 519 956 501 952 514 955 b 562 961 533 960 548 961 b 623 945 574 961 622 962 b 642 714 630 868 637 791 b 645 673 643 700 644 687 b 667 673 652 673 660 673 b 697 664 673 673 699 673 "},"I":{"ha":315,"x_min":0,"x_max":0,"o":"m 286 856 b 299 849 290 856 301 854 b 280 843 298 844 284 843 b 195 850 252 841 223 843 b 202 673 196 791 199 732 b 223 296 208 547 213 421 b 238 109 228 233 233 171 b 241 -78 243 47 254 -16 b 224 -89 239 -85 230 -87 b 182 -94 210 -93 196 -94 b 124 -78 166 -94 131 -94 b 83 134 94 -11 91 62 b 53 886 56 383 49 635 b 74 899 53 894 67 897 b 85 902 77 900 81 901 b 53 938 73 912 62 924 b 97 959 42 955 88 958 b 145 957 112 961 130 960 b 174 947 150 957 171 954 b 286 856 196 907 237 866 "},"J":{"ha":563,"x_min":0,"x_max":0,"o":"m 522 377 b 497 104 524 285 518 194 b 456 -13 488 64 476 24 b 366 -101 436 -51 406 -81 b 225 -127 324 -123 272 -131 b 130 -81 187 -123 156 -107 b 74 20 102 -52 85 -17 b 51 139 63 59 56 99 b 63 381 43 219 47 302 b 97 500 71 421 82 461 b 121 554 104 518 113 536 b 126 569 123 559 126 564 b 124 584 127 574 125 579 b 122 609 123 592 123 600 b 166 619 122 620 161 619 b 199 606 168 619 209 614 b 163 578 187 597 175 587 b 145 562 157 573 150 569 b 138 549 142 558 140 553 b 111 488 128 529 119 509 b 76 370 96 450 85 410 b 72 125 59 288 58 206 b 162 -77 84 55 103 -28 b 246 -106 182 -93 221 -116 b 311 -46 274 -96 296 -70 b 371 172 352 19 363 99 b 381 417 380 254 384 335 b 356 666 377 500 367 583 b 340 787 351 707 346 747 b 311 891 334 822 328 859 b 252 944 301 911 279 944 b 193 921 232 944 209 932 b 158 884 178 911 167 899 b 126 779 138 852 129 816 b 126 719 125 759 125 739 b 141 659 128 699 136 679 b 90 645 144 647 96 646 b 39 659 81 645 38 646 b 50 724 40 682 46 702 b 99 844 59 767 78 806 b 134 895 109 863 121 880 b 175 935 146 909 159 924 b 408 900 244 985 353 960 b 461 784 437 867 450 825 b 492 651 472 740 484 695 b 522 377 508 560 520 468 "},"K":{"ha":658,"x_min":0,"x_max":0,"o":"m 652 -19 b 661 -34 656 -23 661 -29 b 660 -43 662 -37 660 -41 b 636 -55 659 -51 642 -54 b 588 -55 620 -57 604 -57 b 523 -32 565 -51 540 -47 b 502 0 513 -23 507 -12 b 481 82 490 26 485 55 b 421 382 466 182 476 292 b 210 501 378 453 298 506 b 223 296 214 432 218 364 b 238 109 228 233 233 171 b 241 -78 243 47 254 -16 b 224 -89 239 -85 230 -87 b 182 -94 210 -93 196 -94 b 124 -78 166 -94 131 -94 b 83 134 94 -11 91 62 b 53 886 56 383 49 635 b 74 899 53 894 67 897 b 85 902 77 900 81 901 b 53 938 73 912 62 924 b 97 959 42 955 88 958 b 145 957 112 961 130 960 b 174 947 150 957 171 954 b 286 856 196 907 237 866 b 299 849 290 856 301 854 b 280 843 298 844 284 843 b 195 850 252 841 223 843 b 202 673 196 791 199 732 b 208 531 204 626 206 578 b 247 554 222 538 235 545 b 406 724 315 598 366 657 b 493 956 449 795 480 875 b 512 968 494 964 505 966 b 558 974 527 973 543 973 b 604 968 573 974 590 972 b 623 956 607 968 624 963 b 576 815 614 907 599 860 b 392 609 534 733 470 664 b 210 509 336 569 275 534 b 210 505 210 508 210 506 b 366 487 262 509 315 503 b 511 405 421 471 471 444 b 591 262 552 365 578 315 b 618 92 605 206 609 149 b 636 12 622 65 627 37 b 652 -19 640 1 646 -10 "},"L":{"ha":315,"x_min":0,"x_max":0,"o":"m 497 -17 b 513 -27 501 -18 513 -21 b 497 -38 513 -34 502 -37 b 418 -38 472 -45 443 -44 b 415 -38 422 -39 421 -39 b 399 -34 410 -36 405 -35 b 391 -32 398 -34 392 -33 b 385 -31 389 -32 387 -32 b 376 -31 385 -32 378 -31 b 372 -30 374 -30 372 -30 b 369 -30 371 -30 370 -30 b 354 -30 364 -30 359 -30 b 344 -31 353 -30 343 -31 b 333 -32 340 -31 337 -32 b 244 -56 303 -36 272 -44 b 241 -78 243 -63 242 -71 b 224 -89 239 -85 230 -87 b 182 -94 210 -93 196 -94 b 124 -78 166 -94 131 -94 b 83 134 94 -11 91 62 b 53 886 56 383 49 635 b 74 899 53 894 67 897 b 85 902 77 900 81 901 b 53 938 73 912 62 924 b 97 959 42 955 88 958 b 145 957 112 961 130 960 b 174 947 150 957 171 954 b 286 856 196 907 237 866 b 299 849 290 856 301 854 b 280 843 298 844 284 843 b 195 850 252 841 223 843 b 202 673 196 791 199 732 b 223 296 208 547 213 421 b 238 109 228 233 233 171 b 246 -40 242 59 249 9 b 305 -15 264 -29 283 -21 b 497 -17 365 1 437 1 "},"M":{"ha":872,"x_min":0,"x_max":0,"o":"m 798 899 b 818 886 803 898 818 893 b 819 673 819 815 820 744 b 802 296 818 547 811 421 b 785 109 798 233 792 171 b 748 -78 778 45 774 -18 b 689 -94 740 -95 705 -94 b 631 -78 676 -94 634 -94 b 636 134 616 -8 630 64 b 675 809 653 359 668 584 b 673 808 675 809 674 808 b 635 770 660 796 647 783 b 568 692 611 745 589 719 b 461 534 529 641 493 589 b 486 512 469 526 477 519 b 474 497 495 506 479 499 b 433 491 462 492 447 491 b 380 496 416 490 397 491 b 362 508 374 498 363 500 b 317 591 357 537 333 566 b 265 672 301 619 283 645 b 197 770 243 705 220 738 b 202 673 199 738 200 705 b 223 296 208 547 213 421 b 238 109 228 233 233 171 b 241 -78 243 47 254 -16 b 224 -89 239 -85 230 -87 b 182 -94 210 -93 196 -94 b 124 -78 166 -94 131 -94 b 83 134 94 -11 91 63 b 53 886 56 383 49 635 b 74 899 53 894 67 897 b 85 902 77 900 81 901 b 53 938 73 912 62 925 b 97 959 42 955 88 958 b 145 957 112 961 130 960 b 174 947 150 957 171 954 b 286 856 196 907 237 866 b 299 849 290 856 301 854 b 280 843 298 844 284 843 b 195 850 252 841 223 843 b 195 846 195 848 195 847 b 213 839 203 845 210 844 b 340 675 255 784 297 729 b 408 593 363 648 385 620 b 427 571 415 586 421 578 b 511 696 453 614 481 656 b 575 777 532 724 553 750 b 605 815 585 789 595 802 b 626 843 611 823 621 833 b 592 843 615 842 603 842 b 572 849 588 843 573 844 b 585 856 570 854 581 856 b 697 947 635 866 675 907 b 726 957 701 954 718 956 b 774 959 742 960 758 960 b 818 938 783 959 829 955 b 786 902 809 925 798 912 b 798 899 790 901 794 900 "},"N":{"ha":778,"x_min":0,"x_max":0,"o":"m 732 109 b 735 -78 737 47 748 -16 b 718 -89 734 -85 724 -87 b 676 -94 705 -93 690 -94 b 618 -78 661 -94 625 -94 b 581 97 593 -23 587 38 b 497 257 560 153 526 205 b 198 758 401 426 299 592 b 202 673 199 730 200 702 b 223 296 208 547 213 421 b 238 109 228 233 233 171 b 241 -78 243 47 254 -16 b 224 -89 239 -85 230 -87 b 182 -94 210 -93 196 -94 b 124 -78 166 -94 131 -94 b 83 134 94 -11 91 63 b 53 886 56 383 49 635 b 74 899 53 894 67 897 b 85 902 77 900 81 901 b 53 938 73 912 62 924 b 97 959 42 955 88 958 b 145 957 112 961 130 960 b 174 947 150 957 171 954 b 286 856 196 907 237 866 b 299 849 290 856 301 854 b 280 843 298 844 284 843 b 195 850 252 841 223 843 b 195 846 195 848 195 847 b 213 839 204 845 211 843 b 317 676 248 785 283 731 b 505 386 379 579 441 482 b 563 300 524 357 543 328 b 547 886 548 495 544 690 b 568 899 548 894 562 897 b 618 905 584 904 601 904 b 668 899 634 905 652 903 b 688 886 673 898 688 893 b 696 673 690 815 692 744 b 717 296 702 547 707 421 b 732 109 722 233 727 171 "},"O":{"ha":706,"x_min":0,"x_max":0,"o":"m 663 495 b 658 227 677 406 675 315 b 552 -13 641 145 616 50 b 428 -75 519 -46 475 -67 b 247 -54 369 -86 301 -81 b 95 155 164 -12 124 76 b 47 754 23 347 34 554 b 67 767 48 762 61 765 b 116 773 83 772 100 773 b 137 772 123 773 130 773 b 166 842 142 797 152 821 b 378 934 212 911 291 953 b 582 749 474 913 539 828 b 663 495 624 671 650 582 m 577 276 b 575 518 589 356 588 438 b 547 636 568 558 559 597 b 501 751 534 675 517 713 b 351 928 472 820 436 907 b 230 890 307 938 262 917 b 156 789 197 863 170 828 b 150 770 154 783 152 777 b 165 767 155 770 160 769 b 185 754 170 766 186 761 b 183 683 185 730 184 706 b 182 646 183 670 182 658 b 246 609 198 629 219 615 b 238 606 250 607 240 606 b 190 628 221 611 205 618 b 182 635 187 630 185 633 b 238 143 178 469 183 302 b 288 35 251 106 266 69 b 357 -39 305 7 326 -23 b 376 -48 364 -43 372 -46 b 376 -48 376 -48 376 -48 b 384 -46 378 -47 383 -46 b 408 -37 392 -44 400 -41 b 497 46 446 -19 475 12 b 577 276 541 115 565 197 "},"P":{"ha":621,"x_min":0,"x_max":0,"o":"m 557 849 b 587 520 597 745 608 629 b 537 386 578 473 566 426 b 397 312 504 341 453 317 b 235 347 340 306 282 316 b 218 360 229 351 223 355 b 222 296 219 338 221 317 b 237 109 227 233 232 171 b 240 -78 242 47 253 -16 b 223 -89 239 -85 229 -87 b 182 -94 210 -93 195 -94 b 123 -78 166 -94 130 -94 b 83 134 93 -11 91 62 b 53 886 56 383 48 635 b 73 899 53 894 67 897 b 123 905 89 904 106 904 b 171 899 138 905 156 904 b 326 1004 201 955 255 998 b 475 968 378 1009 433 998 b 557 849 516 938 540 894 m 360 333 b 360 333 359 333 357 332 b 360 333 360 333 360 333 m 474 577 b 454 857 483 671 479 765 b 403 961 444 893 430 933 b 300 990 375 989 340 998 b 179 897 244 979 203 943 b 193 886 185 895 193 891 b 201 673 195 815 198 744 b 214 411 205 586 209 498 b 294 352 238 389 264 368 b 357 333 313 343 338 333 b 361 333 357 333 360 333 b 361 333 361 333 361 333 b 371 336 364 334 367 334 b 396 351 380 339 389 345 b 448 444 425 376 437 410 b 474 577 462 487 469 532 "},"Q":{"ha":704,"x_min":0,"x_max":0,"o":"m 722 -28 b 740 -47 732 -30 759 -37 b 561 -70 688 -76 620 -80 b 499 -51 539 -66 518 -60 b 428 -75 477 -62 453 -71 b 247 -54 369 -86 301 -81 b 184 -6 223 -42 202 -25 b 153 -9 174 -9 157 -9 b 124 3 147 -8 118 -7 b 151 36 130 16 142 26 b 151 36 151 36 151 36 b 95 155 127 73 110 115 b 47 754 23 347 34 554 b 67 767 48 762 61 765 b 116 773 83 772 100 773 b 137 772 123 773 130 773 b 166 842 142 797 152 821 b 378 934 212 911 291 953 b 582 749 474 913 539 828 b 663 495 624 671 650 582 b 658 227 677 406 675 315 b 552 -13 641 145 616 50 b 549 -16 551 -14 550 -15 b 587 -39 560 -25 572 -33 b 599 -43 591 -41 595 -42 b 609 -46 601 -44 609 -46 b 614 -47 610 -46 612 -47 b 612 -47 613 -47 611 -47 b 614 -47 613 -47 613 -47 b 615 -47 614 -47 615 -47 b 616 -47 615 -47 616 -47 b 616 -47 617 -47 617 -47 b 618 -47 617 -47 618 -47 b 620 -46 619 -46 620 -46 b 631 -44 623 -46 629 -44 b 654 -33 639 -41 646 -37 b 722 -28 672 -23 703 -25 m 408 -37 b 447 -11 422 -30 435 -21 b 413 41 434 5 424 23 b 381 86 403 57 395 73 b 256 97 348 117 295 116 b 287 35 265 76 275 55 b 357 -39 305 7 326 -23 b 376 -48 364 -43 372 -46 b 376 -48 376 -48 376 -48 b 384 -46 378 -47 383 -46 b 408 -37 392 -44 400 -41 m 497 46 b 577 276 541 115 565 197 b 575 518 589 356 588 438 b 547 636 568 558 559 597 b 501 751 534 675 517 713 b 351 928 472 820 436 907 b 230 890 307 938 262 917 b 156 789 197 863 170 828 b 150 770 154 783 152 777 b 165 767 155 770 160 769 b 185 754 170 766 186 761 b 183 683 185 730 184 706 b 182 646 183 670 182 658 b 246 609 198 629 219 615 b 238 606 250 607 240 606 b 190 628 221 611 205 618 b 182 635 187 630 185 633 b 238 143 178 469 183 302 b 251 107 242 131 247 119 b 485 50 330 131 428 103 b 493 42 488 47 491 44 b 497 46 495 43 496 45 "},"R":{"ha":631,"x_min":0,"x_max":0,"o":"m 397 312 b 235 347 340 306 282 316 b 218 360 229 351 223 355 b 222 296 219 338 221 317 b 225 259 223 284 224 271 b 478 197 314 260 407 252 b 547 81 516 168 538 126 b 551 9 552 57 552 33 b 547 -28 550 -4 549 -16 b 543 -44 546 -34 547 -39 b 517 -62 538 -52 526 -57 b 468 -68 503 -69 483 -69 b 426 -58 454 -67 438 -66 b 411 -41 421 -54 413 -49 b 415 -23 410 -35 413 -29 b 424 9 418 -13 421 -2 b 434 72 429 30 432 51 b 415 178 438 107 434 147 b 227 241 376 240 296 244 b 237 109 230 197 234 153 b 240 -78 242 47 253 -16 b 223 -89 239 -85 229 -87 b 182 -94 210 -93 195 -94 b 123 -78 166 -94 130 -94 b 83 133 93 -11 91 62 b 53 886 56 383 48 635 b 73 899 53 894 67 897 b 123 905 89 904 106 904 b 171 899 138 905 156 904 b 326 1004 201 955 255 998 b 475 968 378 1009 433 998 b 557 849 516 938 540 894 b 587 520 597 745 608 629 b 537 386 578 473 566 426 b 397 312 504 341 453 317 m 360 333 b 360 333 359 333 357 332 b 360 333 360 333 360 333 m 214 411 b 294 352 238 389 264 368 b 357 333 313 343 338 333 b 361 333 357 333 360 333 b 361 333 361 333 361 333 b 371 336 364 334 367 334 b 396 351 380 339 389 345 b 448 444 425 376 437 411 b 474 577 462 487 469 532 b 454 857 483 671 479 765 b 403 961 444 893 430 933 b 300 990 375 989 340 998 b 179 897 244 979 203 943 b 193 886 185 895 193 891 b 201 673 195 815 198 744 b 214 411 205 586 209 498 "},"S":{"ha":583,"x_min":0,"x_max":0,"o":"m 545 735 b 549 678 548 716 549 697 b 498 666 548 665 505 666 b 461 681 492 666 453 668 b 491 739 473 700 483 719 b 492 853 505 774 502 818 b 426 947 482 891 459 923 b 220 950 367 990 278 995 b 146 761 161 905 136 830 b 305 557 159 673 237 611 b 411 464 342 528 379 498 b 485 361 441 433 465 398 b 540 121 525 287 547 204 b 495 5 536 80 525 37 b 382 -53 466 -26 425 -44 b 157 -6 303 -71 218 -60 b 71 217 93 50 66 136 b 102 354 73 264 86 310 b 129 420 110 376 121 398 b 140 452 133 431 136 442 b 143 484 144 463 143 473 b 173 491 143 492 169 491 b 194 483 174 491 201 489 b 164 452 183 473 172 464 b 143 420 157 441 150 430 b 93 281 119 378 102 328 b 92 143 84 235 82 188 b 255 -41 109 61 168 -14 b 356 -36 288 -52 325 -52 b 424 47 389 -18 411 14 b 404 291 453 124 435 217 b 247 498 371 371 315 441 b 49 693 177 559 91 609 b 27 803 31 727 21 765 b 69 904 32 839 47 874 b 305 997 121 973 218 1002 b 491 898 380 993 450 957 b 536 793 513 865 528 831 b 545 735 540 774 541 754 "},"T":{"ha":526,"x_min":0,"x_max":0,"o":"m 513 969 b 542 955 520 967 542 965 b 513 941 542 945 520 942 b 378 939 470 934 422 939 b 306 940 354 940 330 940 b 314 715 308 865 310 790 b 335 318 320 582 325 450 b 350 120 340 252 345 186 b 353 -78 355 54 366 -12 b 336 -89 352 -85 342 -87 b 294 -94 323 -93 308 -94 b 236 -78 279 -94 243 -94 b 196 147 206 -7 203 72 b 165 941 169 411 161 676 b 166 943 165 942 166 942 b 35 945 122 943 79 944 b -18 959 29 945 -19 945 b 35 974 -17 974 25 974 b 265 973 112 973 189 973 b 380 972 304 973 342 972 b 437 972 399 972 418 972 b 513 969 462 972 488 973 "},"U":{"ha":646,"x_min":0,"x_max":0,"o":"m 588 694 b 590 435 590 608 592 521 b 588 320 589 396 587 358 b 583 209 588 283 587 246 b 518 35 577 148 561 83 b 359 -27 478 -9 421 -32 b 171 71 286 -21 218 19 b 60 480 70 182 70 343 b 47 712 54 558 50 635 b 39 943 44 789 39 866 b 59 957 39 951 53 955 b 108 962 75 961 92 962 b 158 957 124 962 142 961 b 178 943 163 955 177 951 b 195 698 186 862 190 780 b 206 453 200 616 203 535 b 263 69 210 324 207 189 b 410 -15 287 15 345 -30 b 543 104 473 -1 519 50 b 572 300 570 165 571 235 b 548 517 572 373 559 445 b 521 733 537 589 530 661 b 493 954 512 807 508 881 b 583 954 490 970 584 974 b 588 694 578 868 586 781 "},"V":{"ha":654,"x_min":0,"x_max":0,"o":"m 599 976 b 638 965 604 976 640 975 b 585 693 621 874 603 784 b 572 628 581 672 576 650 b 565 561 569 606 567 583 b 551 428 560 516 556 472 b 528 189 544 348 536 268 b 516 73 525 150 521 112 b 496 -26 512 40 507 6 b 456 -84 488 -47 475 -70 b 415 -99 443 -92 430 -97 b 390 -101 407 -100 398 -101 b 379 -101 386 -101 383 -101 b 388 -101 382 -101 385 -101 b 369 -101 386 -100 373 -101 b 257 -63 328 -99 289 -89 b 206 21 230 -42 215 -11 b 155 247 185 95 172 171 b 104 485 138 326 120 405 b 8 956 72 642 40 799 b 81 977 5 975 72 977 b 132 971 97 977 116 976 b 153 956 139 969 152 965 b 257 456 188 789 222 623 b 299 235 272 382 285 309 b 321 125 306 198 314 161 b 339 21 327 90 332 55 b 372 -57 345 -6 354 -35 b 398 -81 379 -66 389 -74 b 403 -83 400 -82 402 -83 b 406 -83 405 -83 406 -83 b 493 68 469 -70 483 16 b 521 289 508 141 513 215 b 545 513 529 364 538 439 b 556 625 549 551 554 588 b 557 741 559 664 557 702 b 559 965 557 815 558 890 b 599 976 560 976 592 976 "},"W":{"ha":1018,"x_min":0,"x_max":0,"o":"m 969 958 b 967 838 967 918 967 878 b 964 598 968 758 968 678 b 956 477 962 558 960 518 b 952 359 953 438 953 399 b 929 120 949 279 940 200 b 907 16 924 85 919 50 b 862 -63 897 -12 883 -42 b 783 -98 841 -84 813 -95 b 747 -98 771 -99 759 -99 b 729 -95 741 -97 735 -96 b 723 -95 727 -95 725 -95 b 670 -76 705 -91 687 -85 b 606 -2 642 -60 622 -30 b 571 100 589 29 580 66 b 524 548 531 245 527 398 b 512 775 522 624 518 699 b 502 886 510 812 507 849 b 494 933 500 902 499 918 b 493 937 493 934 493 935 b 478 916 486 931 481 925 b 471 860 472 897 471 879 b 467 739 470 820 468 779 b 456 491 465 656 461 574 b 440 247 452 410 445 329 b 420 7 435 167 431 87 b 385 -81 415 -24 404 -56 b 306 -117 365 -106 337 -116 b 117 -6 225 -122 152 -79 b 86 102 100 27 93 65 b 68 222 78 142 73 182 b 57 464 60 302 58 383 b 58 961 56 630 54 795 b 78 975 58 970 72 973 b 127 981 94 980 111 981 b 176 975 143 981 161 980 b 196 961 181 974 196 969 b 210 447 205 790 206 618 b 219 222 212 372 214 297 b 246 11 223 151 230 80 b 277 -71 252 -17 259 -48 b 304 -95 284 -81 293 -90 b 306 -96 305 -95 306 -95 b 313 -93 309 -95 311 -94 b 402 83 381 -66 393 20 b 445 536 422 233 436 384 b 455 766 449 612 453 689 b 457 878 456 803 458 840 b 455 908 457 888 455 898 b 456 930 455 915 457 923 b 452 948 455 936 452 942 b 452 962 451 952 453 958 b 458 968 452 965 454 967 b 546 977 484 983 517 983 b 599 943 568 973 588 963 b 635 820 620 906 627 861 b 662 575 652 740 657 657 b 675 329 666 493 668 411 b 710 89 681 249 691 168 b 741 -17 719 53 729 18 b 782 -76 749 -41 763 -60 b 785 -75 783 -75 785 -75 b 797 -70 789 -73 793 -72 b 842 -39 814 -63 829 -52 b 893 61 869 -13 883 26 b 929 279 913 132 922 206 b 934 503 936 354 941 429 b 907 731 927 579 917 655 b 872 958 897 807 888 884 b 920 973 869 971 915 972 b 969 958 928 973 970 972 m 773 -77 b 775 -77 773 -78 774 -78 b 773 -77 773 -77 772 -77 m 782 -76 b 782 -76 784 -76 785 -76 b 782 -76 782 -76 782 -76 "},"X":{"ha":626,"x_min":0,"x_max":0,"o":"m 626 963 b 541 723 600 883 572 802 b 377 354 493 598 438 474 b 394 319 383 342 388 330 b 498 122 427 252 461 186 b 552 26 516 90 534 58 b 579 -24 561 10 572 -7 b 587 -69 585 -38 586 -54 b 558 -79 587 -78 563 -78 b 521 -72 546 -79 531 -79 b 464 -19 500 -56 479 -40 b 427 36 451 -2 439 17 b 362 143 404 71 383 107 b 312 231 345 172 329 201 b 249 119 292 194 271 156 b 189 22 230 86 210 54 b 154 -28 178 5 167 -12 b 104 -72 140 -45 121 -59 b 67 -79 94 -79 79 -79 b 38 -69 63 -79 38 -78 b 50 -15 39 -50 42 -32 b 81 40 59 4 71 22 b 142 147 101 76 122 112 b 248 354 179 215 215 284 b -1 963 149 550 66 754 b 72 985 -7 981 65 984 b 123 978 88 985 107 983 b 145 963 131 976 142 972 b 223 723 168 883 194 803 b 312 496 250 647 280 571 b 480 963 378 648 434 804 b 502 978 483 973 493 976 b 553 985 518 984 536 984 b 605 978 570 985 589 983 b 626 963 607 978 628 971 "},"Y":{"ha":615,"x_min":0,"x_max":0,"o":"m 602 977 b 623 962 603 977 626 970 b 538 744 592 891 564 818 b 428 342 493 613 457 478 b 391 135 413 274 401 205 b 376 31 386 100 381 66 b 365 -24 374 12 371 -7 b 356 -46 362 -32 359 -39 b 337 -72 352 -56 344 -64 b 297 -81 330 -81 308 -81 b 257 -72 289 -81 263 -81 b 241 -41 251 -61 244 -53 b 236 -13 238 -32 236 -22 b 238 47 234 7 236 27 b 251 163 241 86 245 124 b 299 422 263 250 279 336 b 298 425 298 423 298 424 b 282 493 296 449 290 471 b 244 563 273 518 257 540 b 164 693 218 606 191 650 b 73 825 136 738 102 780 b -12 955 45 868 17 911 b 49 981 -26 977 41 981 b 110 975 69 982 91 982 b 131 960 119 972 128 970 b 183 826 148 916 165 871 b 229 695 200 783 212 738 b 286 562 247 650 266 606 b 318 497 296 540 305 517 b 480 962 359 656 413 812 b 551 983 490 984 532 983 b 602 977 567 983 586 982 "},"Z":{"ha":601,"x_min":0,"x_max":0,"o":"m 536 755 b 426 492 503 666 467 577 b 415 471 422 485 419 478 b 460 476 430 472 445 474 b 527 470 476 479 512 482 b 496 451 542 456 502 452 b 401 444 464 448 433 445 b 290 244 367 376 330 309 b 212 123 265 203 239 163 b 170 65 198 104 184 84 b 151 38 164 56 157 47 b 179 36 160 38 169 37 b 314 12 224 33 269 22 b 431 -5 352 4 392 -7 b 483 62 465 -4 500 26 b 522 79 476 77 515 79 b 575 66 528 79 577 80 b 504 -15 571 27 539 -3 b 359 -22 458 -31 406 -28 b 220 5 312 -16 266 -4 b 128 11 188 11 156 16 b 124 7 126 10 125 8 b 50 -7 106 -9 72 -8 b -9 12 46 -7 -16 -2 b 31 76 1 35 17 55 b 73 139 45 97 59 118 b 154 266 100 181 127 224 b 254 444 189 325 222 384 b 203 449 237 446 220 447 b 169 470 196 450 152 455 b 203 479 177 477 193 478 b 243 477 216 480 230 479 b 269 474 252 476 261 475 b 395 747 315 563 357 655 b 447 874 412 790 431 831 b 443 969 457 901 480 954 b 442 969 442 969 442 969 b 442 969 442 969 442 969 b 439 969 441 969 440 969 b 433 969 437 969 435 969 b 435 969 433 969 434 969 b 432 969 434 969 433 969 b 414 968 426 969 420 969 b 340 965 390 967 365 966 b 189 958 290 963 240 960 b 150 960 176 957 163 957 b 126 968 144 960 130 962 b 162 987 117 983 155 986 b 342 995 222 990 282 992 b 528 986 402 998 470 1009 b 577 888 571 969 583 930 b 558 822 573 865 565 843 b 536 755 551 799 544 777 "},"[":{"ha":299,"x_min":0,"x_max":0,"o":"m 295 -326 b 305 -340 300 -327 319 -335 b 165 -345 261 -357 209 -360 b 113 -310 147 -339 122 -326 b 100 -238 101 -289 100 -261 b 89 352 100 -41 98 156 b 71 646 84 450 77 548 b 50 940 65 744 60 842 b 87 954 49 951 81 953 b 202 964 125 957 164 961 b 239 963 214 965 227 965 b 262 954 245 962 258 960 b 228 937 270 940 235 938 b 151 929 202 935 177 932 b 185 634 163 831 177 733 b 212 93 201 454 208 273 b 212 -182 214 1 214 -90 b 210 -250 211 -204 211 -227 b 212 -308 208 -271 205 -288 b 220 -326 214 -315 214 -321 b 228 -331 222 -328 226 -330 b 229 -331 230 -330 230 -331 b 229 -331 229 -331 229 -331 b 245 -327 235 -330 240 -329 b 295 -326 260 -321 280 -322 m 226 -332 b 228 -332 227 -332 227 -332 b 228 -332 228 -332 228 -332 b 226 -332 227 -332 227 -332 "},"\\":{"ha":368,"x_min":0,"x_max":0,"o":"m 410 -290 b 360 -304 414 -302 365 -304 b 309 -290 350 -304 311 -304 b 302 -220 307 -266 305 -243 b 289 -150 299 -197 294 -173 b 256 -14 280 -105 267 -59 b 134 476 215 149 176 313 b 14 963 93 638 51 800 b 85 984 10 982 77 984 b 136 978 101 984 120 982 b 156 963 143 975 155 972 b 211 688 176 871 194 780 b 302 198 241 524 271 361 b 349 -46 318 116 334 35 b 374 -168 357 -87 364 -127 b 410 -290 383 -209 396 -249 "},"]":{"ha":299,"x_min":0,"x_max":0,"o":"m 211 954 b 248 940 216 953 249 951 b 225 611 237 830 233 720 b 200 22 210 415 202 218 b 199 -126 199 -27 199 -77 b 198 -202 198 -151 198 -177 b 196 -271 198 -225 199 -248 b 187 -306 194 -283 192 -295 b 167 -326 182 -316 176 -320 b 122 -348 153 -336 139 -344 b -7 -340 80 -359 34 -355 b 3 -326 -22 -335 -3 -327 b 53 -327 18 -322 38 -321 b 68 -331 58 -328 63 -330 b 69 -331 68 -331 68 -331 b 83 -320 75 -329 81 -326 b 90 -296 86 -313 88 -304 b 89 -261 92 -284 90 -273 b 87 -226 88 -249 88 -237 b 85 -149 87 -200 86 -175 b 97 393 81 31 87 213 b 116 667 101 484 106 576 b 147 929 125 754 136 842 b 70 937 121 932 96 935 b 36 954 64 938 28 940 b 58 963 39 960 54 962 b 96 964 70 965 84 965 b 211 954 134 961 173 957 m 68 -332 b 68 -332 68 -332 68 -332 b 68 -332 68 -332 68 -332 b 68 -332 66 -332 68 -332 m 70 -332 b 72 -332 71 -332 71 -332 b 70 -332 71 -332 71 -332 b 70 -332 70 -332 70 -332 "},"^":{"ha":279,"x_min":0,"x_max":0,"o":"m 258 831 b 218 811 267 815 228 812 b 175 813 204 810 189 810 b 148 822 170 813 151 816 b 118 884 139 843 128 864 b 93 831 109 866 101 849 b 21 834 85 816 18 825 b 54 921 32 863 44 892 b 70 948 57 931 61 942 b 127 958 86 959 109 959 b 182 940 147 957 167 953 b 209 907 193 931 201 918 b 258 831 227 883 244 858 "},"_":{"ha":389,"x_min":0,"x_max":0,"o":"m 283 -250 b 326 -283 288 -250 327 -251 b 283 -316 325 -316 291 -316 b 106 -316 224 -316 165 -316 b 63 -283 101 -316 62 -315 b 106 -250 63 -249 98 -250 b 283 -250 165 -250 224 -250 "},"`":{"ha":232,"x_min":0,"x_max":0,"o":"m 212 767 b 177 764 216 759 182 760 b 89 839 146 787 116 812 b 21 925 63 864 39 894 b 72 947 10 944 64 947 b 142 930 88 948 134 950 b 157 884 147 914 153 899 b 173 845 161 870 168 858 b 212 767 183 817 196 791 "},"a":{"ha":504,"x_min":0,"x_max":0,"o":"m 457 236 b 463 21 460 165 465 92 b 442 6 463 12 449 8 b 392 0 426 1 408 0 b 341 6 375 0 357 1 b 320 21 336 8 321 12 b 318 229 316 90 319 160 b 302 129 313 196 307 163 b 243 20 294 90 282 40 b 163 14 220 8 188 9 b 92 51 137 19 110 30 b 46 196 61 90 54 149 b 39 363 37 251 36 308 b 49 443 41 390 44 416 b 67 515 53 467 57 492 b 100 571 75 535 85 556 b 167 602 118 589 142 598 b 289 569 210 609 258 602 b 313 536 299 559 306 547 b 307 619 312 563 311 591 b 245 747 302 665 290 722 b 84 722 194 775 132 744 b 73 724 81 720 70 722 b 258 765 130 752 193 775 b 399 658 323 755 371 717 b 427 557 414 626 421 592 b 442 452 433 522 438 487 b 457 236 449 380 454 308 m 213 587 b 213 587 215 588 215 590 m 296 221 b 316 348 304 263 311 305 b 315 431 316 376 315 403 b 313 505 314 456 314 480 b 259 566 299 528 282 550 b 224 584 248 574 236 580 b 212 587 220 585 216 586 b 197 574 208 582 201 579 b 182 552 191 568 186 560 b 168 497 174 535 171 516 b 161 437 165 477 163 457 b 158 301 158 392 157 346 b 170 166 159 256 163 210 b 203 47 175 125 181 82 b 213 35 206 43 210 39 b 222 41 216 37 219 39 b 257 84 237 52 249 67 b 296 221 278 126 287 175 "},"b":{"ha":613,"x_min":0,"x_max":0,"o":"m 543 563 b 569 217 572 451 582 332 b 519 76 563 168 553 114 b 375 13 482 35 428 17 b 245 41 330 9 282 14 b 204 84 229 52 215 67 b 204 80 204 83 204 81 b 204 33 204 64 204 48 b 191 -13 203 14 204 1 b 136 -25 178 -26 152 -25 b 82 -13 121 -26 94 -25 b 67 42 66 2 68 21 b 65 92 66 58 65 75 b 62 199 64 128 63 163 b 55 947 55 448 53 698 b 73 960 55 955 68 958 b 118 965 88 964 103 965 b 182 947 130 966 181 966 b 190 733 185 876 189 805 b 195 559 192 675 193 617 b 245 691 204 606 215 653 b 354 753 270 725 311 750 b 488 697 403 756 456 737 b 543 563 518 659 531 610 m 444 285 b 426 577 449 382 443 481 b 397 688 420 614 413 654 b 334 739 386 714 366 745 b 195 534 239 722 212 615 b 200 359 197 476 198 418 b 203 172 201 297 202 235 b 203 130 203 158 203 144 b 287 42 218 91 248 60 b 320 32 297 37 308 34 b 329 31 323 32 326 32 b 330 31 331 32 331 32 b 369 52 343 35 358 43 b 444 285 437 108 439 203 "},"c":{"ha":461,"x_min":0,"x_max":0,"o":"m 435 229 b 447 229 436 231 447 231 b 281 1 433 131 392 17 b 201 5 254 -3 227 -1 b 127 37 173 11 148 18 b 64 159 92 69 76 115 b 46 503 34 270 31 389 b 65 592 50 533 57 562 b 89 665 71 617 78 641 b 199 750 111 710 148 744 b 311 713 239 754 281 742 b 353 652 329 696 341 674 b 389 579 366 628 380 605 b 349 567 393 569 353 567 b 309 579 342 567 309 567 b 314 651 309 603 317 628 b 286 715 311 675 302 697 b 227 742 275 727 244 752 b 213 728 222 740 216 732 b 200 705 207 721 203 713 b 190 655 195 689 192 671 b 178 586 187 632 182 609 b 165 441 171 538 167 489 b 189 150 161 343 170 246 b 230 47 196 114 207 76 b 258 18 237 38 248 22 b 297 22 270 13 286 18 b 435 229 386 49 419 147 "},"d":{"ha":604,"x_min":0,"x_max":0,"o":"m 550 80 b 550 33 550 64 550 48 b 537 -13 550 14 551 0 b 483 -25 525 -26 499 -25 b 428 -13 467 -26 440 -25 b 413 42 412 2 414 21 b 411 91 412 58 412 74 b 354 33 398 67 378 47 b 190 20 306 6 243 8 b 71 106 142 32 94 61 b 39 259 48 154 42 207 b 43 434 36 318 37 376 b 80 604 49 492 63 549 b 148 721 93 648 110 693 b 285 748 187 750 238 761 b 401 617 350 730 382 676 b 401 947 400 727 400 837 b 420 960 401 955 414 958 b 465 965 434 964 450 965 b 528 947 477 966 528 966 b 537 733 532 876 535 805 b 546 359 540 609 543 484 b 549 172 548 297 549 235 b 550 80 550 141 550 111 m 282 31 b 282 31 279 32 280 31 m 338 50 b 410 137 373 69 398 100 b 409 199 410 158 409 178 b 401 594 405 331 403 463 b 366 677 393 623 383 652 b 317 724 353 696 337 713 b 259 739 302 733 277 745 b 205 664 229 729 213 691 b 179 538 193 622 184 581 b 170 245 166 441 161 342 b 259 40 177 170 185 81 b 278 32 266 37 272 34 b 282 31 280 31 280 31 b 284 31 283 31 283 31 b 338 50 304 33 322 40 "},"e":{"ha":496,"x_min":0,"x_max":0,"o":"m 436 315 b 475 315 433 323 477 322 b 463 283 471 304 466 294 b 460 256 461 274 461 265 b 455 197 459 236 457 217 b 425 89 449 160 440 124 b 376 25 414 64 399 41 b 291 3 350 8 322 3 b 113 85 225 3 152 29 b 46 274 76 139 56 209 b 41 484 37 343 35 414 b 55 589 45 519 49 554 b 81 686 60 621 66 656 b 275 757 114 757 205 771 b 312 742 289 754 301 751 b 338 721 321 735 330 729 b 361 689 347 712 353 700 b 384 651 370 677 377 664 b 404 610 391 638 398 624 b 412 570 409 597 415 584 b 360 527 407 544 384 530 b 246 524 323 522 284 524 b 182 524 225 524 203 524 b 176 404 178 484 177 444 b 191 225 176 343 182 284 b 339 21 202 157 232 -19 b 427 142 388 39 414 95 b 443 229 435 170 440 200 b 446 272 444 243 446 258 b 436 315 446 286 440 301 m 187 583 b 184 549 186 572 185 560 b 348 545 238 548 293 546 b 379 614 386 544 388 587 b 339 691 370 640 357 670 b 264 732 322 711 290 728 b 248 734 260 732 253 733 b 244 732 246 733 243 732 b 232 725 240 730 236 728 b 187 583 190 691 193 631 "},"f":{"ha":433,"x_min":0,"x_max":0,"o":"m 418 584 b 427 532 425 568 427 550 b 375 517 427 517 383 517 b 322 532 369 517 318 520 b 337 584 329 549 332 567 b 342 636 342 602 345 618 b 289 725 336 669 317 705 b 214 723 263 743 235 746 b 183 655 197 704 188 680 b 173 447 169 586 170 517 b 174 423 173 439 174 431 b 278 422 209 423 243 423 b 321 409 283 422 322 422 b 278 397 320 397 286 397 b 175 398 244 397 209 397 b 188 220 178 338 182 279 b 199 109 191 183 196 146 b 202 49 200 89 202 69 b 199 23 202 40 202 31 b 196 -6 195 11 191 6 b 155 -18 199 -16 159 -18 b 115 -6 148 -18 114 -18 b 95 34 115 9 101 20 b 83 69 90 45 86 57 b 69 138 77 91 73 115 b 52 278 62 185 57 231 b 44 527 44 360 41 444 b 66 642 46 565 53 606 b 120 724 77 672 94 704 b 234 756 153 749 193 759 b 319 720 266 754 293 739 b 392 633 349 698 374 666 b 418 584 401 617 411 601 "},"g":{"ha":650,"x_min":0,"x_max":0,"o":"m 602 103 b 591 -19 603 63 603 20 b 529 -109 580 -55 559 -85 b 320 -155 473 -153 390 -174 b 202 -32 262 -140 216 -91 b 217 -32 202 -30 216 -29 b 277 -116 228 -65 249 -95 b 369 -147 301 -135 338 -153 b 459 -34 422 -138 451 -82 b 463 73 466 1 465 37 b 457 191 460 112 459 152 b 450 520 452 301 450 410 b 428 462 443 501 436 481 b 356 267 404 397 385 330 b 260 168 336 225 307 181 b 95 207 205 152 136 169 b 29 359 54 246 36 304 b 40 530 21 415 25 475 b 255 771 69 636 138 750 b 400 744 304 780 358 772 b 455 678 425 727 443 704 b 469 684 460 681 466 682 b 513 689 483 688 498 689 b 576 671 525 689 574 689 b 595 369 583 570 590 470 b 602 103 599 280 600 191 m 450 558 b 451 659 450 592 450 626 b 377 749 438 697 413 730 b 248 723 329 775 282 762 b 149 467 188 653 159 557 b 152 321 144 419 144 369 b 202 197 159 274 170 233 b 222 181 208 191 214 185 b 229 178 224 179 227 178 b 237 179 228 178 235 178 b 300 218 262 184 283 200 b 371 354 336 256 352 307 b 450 558 397 422 424 490 "},"h":{"ha":654,"x_min":0,"x_max":0,"o":"m 609 91 b 607 -3 610 60 611 28 b 587 -17 605 -12 594 -15 b 538 -23 571 -22 554 -23 b 490 -17 523 -23 505 -22 b 469 -3 483 -15 471 -11 b 462 97 463 30 462 64 b 460 194 461 130 461 162 b 456 386 459 258 457 322 b 456 550 455 441 459 496 b 428 687 454 596 453 647 b 348 740 412 713 382 743 b 232 663 300 735 257 704 b 197 518 207 619 199 567 b 196 505 196 514 196 510 b 200 359 197 457 198 408 b 203 172 201 297 202 235 b 204 80 203 141 204 111 b 204 33 204 64 204 48 b 191 -13 203 14 204 0 b 136 -25 178 -26 152 -25 b 82 -13 121 -26 94 -25 b 67 42 66 2 68 21 b 65 92 66 58 65 75 b 62 199 64 128 63 163 b 55 947 55 448 53 698 b 73 960 55 955 68 958 b 118 965 88 964 103 965 b 182 947 130 966 181 966 b 190 733 185 876 189 805 b 194 589 192 685 193 637 b 195 593 194 590 194 592 b 265 716 205 642 228 683 b 381 755 299 746 336 757 b 523 694 433 752 485 731 b 587 548 562 656 581 601 b 599 371 594 489 596 430 b 605 186 601 309 603 247 b 609 91 607 154 608 123 "},"i":{"ha":249,"x_min":0,"x_max":0,"o":"m 201 32 b 188 -13 201 15 203 -2 b 141 -25 174 -23 157 -24 b 84 -17 125 -26 99 -27 b 66 3 76 -11 69 -8 b 64 26 64 10 64 19 b 62 68 63 40 62 54 b 58 153 61 96 60 125 b 55 325 56 210 56 268 b 52 670 53 440 51 555 b 70 683 52 678 65 681 b 115 688 85 687 100 688 b 179 670 127 689 178 689 b 194 328 186 556 190 442 b 199 156 196 271 199 213 b 201 74 200 129 200 101 b 201 32 201 60 201 46 m 77 735 b 61 746 73 736 61 740 b 61 791 61 761 61 776 b 77 802 61 798 72 800 b 114 807 89 806 102 806 b 152 802 126 807 140 806 b 168 791 156 801 168 797 b 168 746 168 776 168 761 b 152 735 168 739 157 737 b 114 731 140 731 127 731 b 77 735 102 730 88 732 "},"j":{"ha":250,"x_min":0,"x_max":0,"o":"m 203 103 b 192 -19 204 63 203 20 b 130 -109 181 -55 159 -85 b -79 -155 73 -153 -9 -174 b -197 -32 -138 -140 -184 -91 b -182 -32 -198 -30 -183 -29 b -123 -116 -171 -65 -150 -95 b -30 -147 -98 -135 -62 -153 b 60 -34 23 -138 51 -82 b 63 73 66 1 66 37 b 58 191 60 112 60 152 b 51 671 51 351 49 511 b 69 684 51 678 64 682 b 114 689 84 688 99 689 b 176 671 126 689 175 689 b 195 369 184 570 191 470 b 203 103 200 280 201 191 m 74 735 b 58 746 70 736 58 740 b 58 791 58 761 58 776 b 74 802 58 798 69 800 b 112 807 86 806 99 806 b 149 802 124 807 138 806 b 165 791 153 801 165 797 b 165 746 165 776 165 761 b 149 735 165 739 154 737 b 112 731 137 731 124 731 b 74 735 100 730 86 732 "},"k":{"ha":632,"x_min":0,"x_max":0,"o":"m 619 796 b 453 579 591 706 532 630 b 325 527 413 554 370 537 b 348 523 333 526 340 524 b 568 326 451 501 536 426 b 586 159 585 271 586 215 b 588 75 586 131 586 103 b 592 31 588 60 590 45 b 591 -8 595 16 600 5 b 561 -19 586 -15 568 -18 b 529 -21 551 -21 540 -21 b 468 -8 510 -22 483 -20 b 452 33 455 3 454 18 b 449 75 450 47 449 61 b 452 156 448 102 450 129 b 420 423 458 246 469 341 b 337 502 400 456 372 485 b 281 518 319 511 300 516 b 219 514 260 516 240 514 b 196 507 211 512 203 510 b 200 359 197 458 198 408 b 203 172 201 297 202 235 b 204 80 203 141 204 111 b 204 33 204 64 204 48 b 191 -13 203 14 204 0 b 136 -25 178 -26 152 -25 b 82 -13 121 -26 94 -25 b 67 42 66 2 68 21 b 65 92 66 58 65 75 b 62 199 64 128 63 163 b 55 947 55 448 53 698 b 73 960 55 955 68 958 b 118 965 88 964 103 965 b 182 947 130 966 181 966 b 190 733 185 876 189 805 b 195 535 192 667 194 601 b 497 796 343 531 468 654 b 515 808 499 804 509 806 b 558 814 529 813 544 813 b 601 808 572 814 588 812 b 619 796 603 808 621 802 m 196 513 b 200 514 197 513 199 514 b 196 514 199 514 197 514 b 196 513 196 514 196 513 "},"l":{"ha":257,"x_min":0,"x_max":0,"o":"m 204 80 b 204 33 204 64 204 48 b 191 -13 203 14 204 1 b 136 -25 178 -26 152 -25 b 82 -13 121 -26 94 -25 b 67 42 66 2 68 21 b 65 92 66 58 65 75 b 62 199 64 128 63 163 b 55 947 55 448 53 698 b 73 960 55 955 68 958 b 118 965 88 964 103 965 b 182 947 130 966 181 966 b 190 733 185 876 189 805 b 200 359 194 609 197 484 b 203 172 201 297 202 235 b 204 80 203 141 204 111 "},"m":{"ha":1014,"x_min":0,"x_max":0,"o":"m 969 91 b 967 -3 970 60 972 28 b 947 -17 966 -12 954 -15 b 898 -23 931 -22 915 -23 b 850 -17 883 -23 865 -22 b 830 -3 843 -15 831 -11 b 822 97 823 30 823 64 b 820 194 822 130 821 162 b 817 386 819 258 818 322 b 816 550 816 441 819 496 b 789 687 814 596 813 647 b 709 740 772 713 743 743 b 593 663 660 735 617 704 b 562 573 576 635 567 604 b 566 548 564 564 565 556 b 578 371 573 489 576 430 b 585 186 580 309 582 247 b 588 91 586 154 587 123 b 586 -3 589 60 591 28 b 566 -17 585 -12 573 -15 b 517 -23 550 -22 533 -23 b 469 -17 502 -23 484 -22 b 449 -3 462 -15 450 -11 b 441 97 442 30 442 64 b 439 194 440 130 440 162 b 435 386 438 258 437 322 b 435 550 434 441 438 496 b 407 687 433 596 432 647 b 327 740 391 713 361 743 b 212 663 279 735 236 704 b 189 610 202 646 195 628 b 190 579 190 600 190 589 b 200 281 194 480 197 380 b 203 133 201 231 202 182 b 204 59 203 108 204 84 b 191 -13 204 36 210 2 b 136 -25 176 -25 154 -25 b 82 -13 119 -26 96 -24 b 67 29 67 -2 68 13 b 65 71 66 43 65 57 b 62 154 64 98 63 126 b 55 747 55 351 53 550 b 73 760 55 755 68 759 b 118 766 88 765 103 766 b 182 747 130 766 181 766 b 188 638 184 711 186 674 b 244 716 201 668 219 694 b 360 755 278 746 315 757 b 502 694 413 752 465 731 b 556 598 529 668 546 634 b 626 716 567 645 590 684 b 742 755 659 746 697 757 b 883 694 794 752 846 731 b 947 548 922 656 941 601 b 959 371 954 489 957 430 b 966 186 961 309 963 247 b 969 91 967 154 968 123 "},"n":{"ha":633,"x_min":0,"x_max":0,"o":"m 588 91 b 586 -3 589 60 590 28 b 566 -17 585 -12 573 -15 b 517 -23 550 -22 533 -23 b 469 -17 502 -23 484 -22 b 449 -3 462 -15 450 -11 b 441 97 442 30 442 64 b 439 194 440 130 440 162 b 435 386 438 258 437 322 b 435 550 434 441 438 496 b 407 687 433 596 432 647 b 327 740 391 713 361 743 b 212 663 279 735 236 704 b 189 610 202 646 195 628 b 190 579 190 600 190 589 b 200 281 194 480 197 380 b 203 133 201 231 202 182 b 204 59 203 108 204 84 b 191 -13 204 36 210 2 b 136 -25 176 -25 154 -25 b 82 -13 119 -26 96 -24 b 67 29 67 -2 68 13 b 65 71 66 43 65 57 b 62 154 64 98 63 126 b 55 747 55 351 53 550 b 73 760 55 755 68 759 b 118 766 88 765 103 766 b 182 747 130 766 181 766 b 188 638 184 711 186 674 b 244 716 201 668 219 694 b 360 755 278 746 315 757 b 502 694 413 752 465 731 b 566 548 541 656 560 601 b 578 371 573 489 576 430 b 585 186 580 309 582 247 b 588 91 586 154 587 123 "},"o":{"ha":604,"x_min":0,"x_max":0,"o":"m 572 507 b 470 52 553 356 607 163 b 253 -2 410 3 329 -14 b 105 97 191 8 139 45 b 51 296 66 155 56 227 b 39 526 45 372 38 450 b 114 711 39 596 54 668 b 326 757 173 753 254 770 b 514 525 437 737 517 635 b 553 519 527 524 541 523 b 572 507 557 518 572 514 m 288 21 b 291 21 288 21 289 21 b 288 21 289 21 288 21 m 294 21 b 294 21 298 20 297 21 m 466 519 b 494 524 475 522 484 523 b 439 678 494 580 478 637 b 282 738 400 718 337 752 b 182 636 232 726 200 682 b 159 448 159 575 160 512 b 156 244 159 380 153 312 b 203 80 158 187 168 127 b 262 31 219 59 238 43 b 292 21 271 27 285 23 b 295 22 293 21 294 22 b 298 23 295 22 298 23 b 408 122 347 37 387 77 b 448 507 466 243 433 379 b 466 519 449 514 460 517 "},"p":{"ha":649,"x_min":0,"x_max":0,"o":"m 597 496 b 595 212 626 405 635 301 b 411 41 559 132 495 68 b 205 44 348 21 267 15 b 206 -24 205 21 205 -1 b 207 -116 206 -55 206 -86 b 206 -164 207 -132 207 -148 b 194 -210 206 -182 207 -196 b 139 -222 181 -222 155 -222 b 84 -210 124 -222 96 -222 b 70 -155 69 -194 71 -176 b 68 -105 69 -138 68 -121 b 65 2 67 -69 66 -33 b 58 750 58 252 56 501 b 76 764 58 758 70 762 b 121 769 91 768 106 769 b 185 750 133 769 184 769 b 185 745 185 749 185 747 b 221 756 197 750 208 754 b 294 757 245 759 270 759 b 444 708 347 752 400 737 b 597 496 520 658 569 582 m 386 88 b 470 510 508 186 511 372 b 363 690 450 576 416 644 b 185 737 315 733 249 758 b 193 537 188 670 192 603 b 202 163 196 412 199 287 b 204 72 203 133 204 103 b 256 53 221 64 238 57 b 282 49 265 50 274 49 b 302 49 288 48 299 48 b 386 88 328 52 361 67 "},"q":{"ha":613,"x_min":0,"x_max":0,"o":"m 767 -239 b 741 -257 778 -250 746 -256 b 671 -255 720 -261 692 -262 b 624 -225 652 -248 638 -240 b 595 -193 614 -215 605 -203 b 576 -178 592 -191 582 -182 b 567 -181 573 -179 570 -179 b 561 -183 565 -181 563 -182 b 549 -210 560 -192 558 -201 b 495 -222 537 -222 511 -222 b 440 -210 479 -222 452 -222 b 425 -155 424 -194 426 -176 b 423 -105 424 -138 424 -121 b 420 2 422 -69 421 -33 b 418 103 420 36 419 70 b 354 33 404 74 382 49 b 190 20 306 6 243 8 b 71 106 142 32 94 61 b 39 259 48 154 42 207 b 43 434 36 318 37 376 b 80 604 49 492 63 549 b 148 721 93 648 110 693 b 285 748 187 750 238 761 b 413 576 365 726 396 650 b 413 750 412 634 413 692 b 432 764 413 758 426 762 b 477 769 446 768 462 769 b 540 750 488 769 540 769 b 549 537 544 679 547 608 b 558 163 552 412 555 287 b 561 -24 559 100 561 38 b 562 -116 562 -55 562 -86 b 562 -158 562 -130 562 -144 b 649 -160 590 -151 623 -153 b 714 -196 674 -167 695 -180 b 767 -239 732 -210 752 -223 m 282 31 b 282 31 279 32 280 31 m 411 141 b 417 143 412 142 414 143 b 413 549 414 278 413 414 b 366 677 403 593 391 638 b 317 724 353 696 337 713 b 259 739 302 733 277 745 b 205 664 229 729 213 691 b 179 538 193 622 184 581 b 170 245 166 441 161 342 b 259 40 177 170 185 81 b 278 32 266 37 272 34 b 282 31 280 31 280 31 b 284 31 283 31 283 31 b 338 50 304 33 322 40 b 411 141 374 70 400 102 m 571 -174 b 575 -177 571 -176 573 -177 b 571 -174 573 -175 571 -174 m 580 -177 b 580 -177 584 -176 587 -174 "},"r":{"ha":571,"x_min":0,"x_max":0,"o":"m 560 555 b 560 530 561 548 562 537 b 545 510 558 522 550 516 b 501 500 537 499 513 500 b 457 510 489 500 466 500 b 438 533 450 517 441 523 b 434 558 436 541 435 549 b 427 602 432 573 429 587 b 403 680 423 629 415 656 b 363 730 394 700 380 717 b 340 741 356 735 349 738 b 329 738 337 740 333 740 b 268 697 305 730 285 715 b 230 628 248 677 237 655 b 202 465 215 575 209 519 b 196 401 200 443 198 422 b 200 281 197 361 198 321 b 203 133 201 231 202 182 b 204 59 203 108 204 84 b 191 -13 204 36 210 2 b 136 -25 176 -25 154 -25 b 82 -13 119 -26 96 -24 b 67 29 67 -2 68 13 b 65 71 66 43 65 57 b 62 154 64 98 63 126 b 55 747 55 351 53 550 b 73 760 55 755 68 759 b 118 766 88 765 103 766 b 182 747 130 766 181 766 b 190 579 185 691 189 635 b 193 497 191 552 192 524 b 195 516 194 503 195 510 b 211 610 200 547 204 579 b 224 655 214 625 218 640 b 236 693 228 667 231 680 b 274 743 244 712 256 730 b 352 763 296 759 325 763 b 518 683 418 763 479 736 b 553 602 535 659 545 631 b 560 555 557 587 559 571 "},"s":{"ha":489,"x_min":0,"x_max":0,"o":"m 371 447 b 397 561 382 484 393 522 b 378 663 402 596 395 631 b 223 736 350 715 284 765 b 148 611 177 714 150 661 b 216 443 145 548 176 489 b 421 133 294 351 433 273 b 326 8 416 77 380 26 b 136 43 268 -11 178 -8 b 79 191 102 83 78 138 b 148 342 81 248 106 304 b 161 341 151 345 162 342 b 106 161 111 295 90 227 b 246 26 123 94 178 40 b 254 29 249 27 254 29 b 280 51 264 35 273 42 b 309 122 297 71 306 96 b 238 291 315 187 279 244 b 96 427 194 340 140 378 b 24 595 54 472 18 532 b 119 734 30 655 67 705 b 306 749 172 764 249 773 b 364 707 327 740 348 723 b 414 636 385 687 401 662 b 429 599 420 624 424 611 b 446 550 434 582 441 567 b 463 447 457 516 461 482 b 417 433 464 433 424 433 b 371 447 412 433 368 435 m 242 25 b 244 25 242 25 243 25 b 242 25 243 25 242 25 m 251 25 b 251 25 253 24 253 24 "},"t":{"ha":432,"x_min":0,"x_max":0,"o":"m 405 325 b 416 325 405 328 416 328 b 399 142 415 264 409 203 b 347 2 391 92 380 42 b 131 11 291 -67 189 -44 b 72 143 94 46 78 94 b 61 305 65 197 64 251 b 43 831 51 480 46 656 b -17 830 23 831 3 830 b -53 841 -22 830 -53 830 b -17 851 -53 851 -23 851 b 43 850 3 851 23 850 b 41 962 42 887 42 925 b 61 975 41 970 55 974 b 108 981 76 980 92 981 b 154 975 123 981 140 980 b 174 962 159 974 173 970 b 180 848 176 924 178 886 b 273 849 211 847 242 848 b 311 841 278 849 311 851 b 273 832 311 830 277 832 b 180 834 242 833 211 834 b 189 622 184 763 187 692 b 195 320 192 521 194 420 b 195 170 195 270 196 220 b 204 40 194 127 195 83 b 258 -32 210 13 225 -28 b 318 -6 279 -35 303 -19 b 354 41 334 7 345 23 b 391 177 376 82 384 131 b 405 325 399 226 403 276 "},"u":{"ha":619,"x_min":0,"x_max":0,"o":"m 568 59 b 555 -13 568 36 575 2 b 501 -25 540 -25 518 -25 b 446 -13 483 -26 460 -24 b 431 29 431 -2 432 13 b 429 71 430 43 430 57 b 426 154 428 98 427 126 b 426 169 426 159 426 164 b 391 74 418 136 407 105 b 319 -12 374 41 352 8 b 210 -27 287 -31 246 -35 b 106 40 167 -18 132 6 b 61 163 79 76 68 120 b 51 452 46 258 51 356 b 58 745 51 550 55 647 b 77 759 58 753 71 757 b 123 764 92 763 108 764 b 169 759 138 764 155 763 b 188 745 174 757 188 753 b 193 449 191 646 193 548 b 191 189 192 363 190 276 b 198 66 192 148 191 107 b 235 -11 203 39 212 6 b 332 21 265 -34 311 1 b 394 117 360 47 379 82 b 424 219 408 150 417 184 b 419 747 419 395 417 571 b 438 761 419 755 432 759 b 483 766 452 765 468 766 b 546 747 495 766 545 766 b 555 579 549 691 553 635 b 564 281 558 480 561 380 b 567 133 565 231 567 182 b 568 59 568 108 568 84 "},"v":{"ha":585,"x_min":0,"x_max":0,"o":"m 533 745 b 569 745 527 756 575 752 b 554 714 561 735 556 727 b 549 687 552 705 551 696 b 542 640 547 672 544 656 b 526 543 536 608 531 576 b 495 351 515 479 506 415 b 466 185 487 295 478 240 b 426 39 456 137 450 83 b 307 -4 403 -5 353 -15 b 198 91 257 9 221 47 b 93 410 145 190 122 303 b 9 747 64 522 36 634 b 79 767 4 765 71 767 b 129 761 95 767 114 766 b 150 747 137 759 148 756 b 241 399 182 631 212 515 b 319 104 265 300 288 201 b 338 44 325 84 331 64 b 347 21 341 36 343 28 b 358 10 350 17 355 13 b 367 13 361 11 364 12 b 381 23 372 16 377 19 b 403 48 390 30 397 39 b 432 116 418 68 425 93 b 493 423 463 216 476 320 b 518 582 501 476 510 529 b 530 661 522 608 526 635 b 536 702 532 675 534 688 b 539 720 537 708 538 714 b 533 745 540 730 537 736 "},"w":{"ha":810,"x_min":0,"x_max":0,"o":"m 757 425 b 743 147 757 333 760 238 b 590 -30 728 66 682 -23 b 496 3 555 -33 521 -22 b 443 98 471 29 455 65 b 404 298 420 162 411 230 b 354 70 397 220 387 141 b 294 -12 340 40 323 7 b 189 -24 264 -32 223 -35 b 60 181 101 3 70 99 b 52 461 49 273 52 368 b 59 745 52 556 56 650 b 78 759 59 753 72 757 b 124 764 93 763 109 764 b 170 759 139 764 156 763 b 189 745 175 757 189 753 b 194 455 192 648 194 552 b 191 204 193 371 191 287 b 192 82 192 163 189 122 b 217 -6 194 52 197 17 b 304 22 242 -37 285 1 b 357 120 329 50 345 85 b 399 348 383 193 391 271 b 404 349 400 349 402 349 b 409 348 407 349 409 349 b 462 94 418 262 427 174 b 524 4 476 60 495 28 b 577 -17 536 -6 560 -23 b 602 10 589 -13 597 -1 b 618 114 617 43 616 79 b 617 233 619 153 617 193 b 615 488 616 318 615 403 b 619 745 614 573 617 659 b 638 759 619 753 632 757 b 685 764 653 763 669 764 b 731 759 699 764 717 763 b 750 745 736 757 750 753 b 757 425 753 639 757 532 "},"x":{"ha":507,"x_min":0,"x_max":0,"o":"m 497 733 b 400 569 463 679 430 625 b 301 382 367 507 334 445 b 348 281 317 349 332 315 b 413 141 369 234 392 188 b 443 73 424 118 433 96 b 457 34 448 60 453 47 b 463 18 459 29 462 24 b 459 0 464 12 461 6 b 399 -2 454 -15 408 -11 b 382 18 393 4 385 10 b 375 37 379 24 377 31 b 358 78 369 51 364 64 b 322 155 347 104 335 130 b 253 292 300 201 277 246 b 245 277 250 287 248 282 b 175 138 221 231 197 185 b 143 68 164 115 153 91 b 128 29 138 55 133 42 b 122 14 126 24 125 19 b 107 -2 119 8 112 3 b 46 0 98 -11 51 -15 b 45 24 44 9 41 14 b 51 42 47 30 49 36 b 67 83 56 56 62 69 b 100 159 77 108 89 134 b 204 383 135 233 170 308 b 173 442 194 402 183 422 b 9 733 120 540 68 639 b 68 759 -5 755 60 758 b 127 753 87 759 108 759 b 148 739 136 750 145 748 b 214 573 168 683 189 627 b 253 488 227 545 240 517 b 358 739 290 571 327 653 b 386 755 362 750 375 752 b 438 759 403 758 420 759 b 497 733 447 758 510 755 "},"y":{"ha":611,"x_min":0,"x_max":0,"o":"m 558 191 b 559 68 559 150 560 109 b 524 -65 557 21 551 -25 b 306 -160 478 -133 386 -169 b 161 -32 236 -152 177 -101 b 176 -32 160 -30 174 -29 b 252 -128 189 -71 216 -107 b 352 -140 282 -146 319 -156 b 424 38 418 -109 426 -26 b 418 156 424 78 419 117 b 415 215 417 175 416 195 b 375 101 406 176 394 137 b 308 23 359 71 338 41 b 201 9 277 4 236 1 b 103 72 161 18 127 39 b 59 190 77 106 65 148 b 49 465 45 280 49 374 b 57 745 50 558 54 651 b 76 758 57 753 70 756 b 122 764 91 763 107 764 b 169 758 137 764 154 763 b 188 745 173 757 188 752 b 191 462 190 650 192 556 b 189 213 190 379 188 296 b 195 97 190 174 189 136 b 229 24 199 72 207 41 b 321 56 257 2 301 37 b 380 149 348 81 366 115 b 413 267 396 187 406 226 b 413 267 413 267 413 267 b 409 739 407 424 408 581 b 427 751 409 746 422 750 b 471 757 441 756 457 756 b 534 739 483 757 532 757 b 551 454 541 644 547 549 b 558 191 555 366 557 279 "},"z":{"ha":479,"x_min":0,"x_max":0,"o":"m 468 733 b 371 569 434 679 401 625 b 267 373 337 504 302 438 b 317 373 284 373 300 373 b 370 357 323 373 371 372 b 317 342 369 341 327 342 b 250 342 295 342 273 342 b 216 277 239 320 228 299 b 146 138 192 231 168 185 b 114 68 135 115 124 91 b 100 33 109 56 105 44 b 243 27 148 32 195 30 b 328 22 271 25 299 24 b 336 32 329 25 334 29 b 352 46 340 38 345 42 b 394 52 363 53 381 52 b 429 43 405 51 419 50 b 436 36 432 41 434 39 b 436 28 438 33 438 30 b 354 -9 418 -1 385 -7 b 244 -5 317 -11 280 -7 b 88 7 192 -2 140 2 b 77 -2 84 4 81 1 b 17 0 69 -11 22 -15 b 16 24 15 9 12 14 b 22 42 18 30 20 36 b 38 83 27 56 32 69 b 71 158 48 108 60 134 b 156 342 99 220 128 281 b 149 342 154 342 151 342 b 96 357 143 342 95 342 b 149 373 97 373 139 373 b 171 373 156 373 163 373 b 204 446 182 397 193 421 b 318 710 244 533 284 620 b 272 708 303 709 287 709 b 151 709 232 707 191 707 b 165 658 156 692 161 675 b 115 644 167 645 121 644 b 65 658 106 644 65 644 b 71 716 65 678 69 697 b 75 722 71 719 73 721 b 78 730 74 725 74 727 b 147 737 92 743 130 741 b 206 725 167 733 186 727 b 272 719 228 722 250 720 b 321 719 288 719 305 718 b 329 739 324 725 326 732 b 357 755 333 750 346 752 b 409 759 374 758 391 759 b 468 733 418 758 481 755 "},"{":{"ha":331,"x_min":0,"x_max":0,"o":"m 348 -354 b 342 -368 359 -360 350 -366 b 158 -289 270 -385 191 -357 b 117 -121 133 -238 124 -178 b 116 61 110 -61 111 0 b 118 239 120 119 128 181 b 85 335 112 271 104 307 b 52 346 70 335 55 338 b 43 368 49 354 43 360 b 48 386 43 374 46 381 b 57 426 52 399 54 413 b 69 508 63 453 67 480 b 73 671 74 562 73 616 b 90 840 73 728 74 785 b 192 953 105 893 136 938 b 283 950 218 960 258 964 b 293 936 289 946 292 943 b 293 930 293 933 292 933 b 297 924 294 927 296 926 b 302 912 299 920 300 916 b 289 912 302 910 290 909 b 270 932 285 922 280 928 b 258 935 268 933 262 934 b 251 930 255 934 253 932 b 220 875 234 916 225 896 b 204 589 197 781 204 684 b 192 458 204 544 202 501 b 171 395 187 436 180 416 b 152 364 166 385 160 373 b 139 353 149 360 144 356 b 233 238 183 327 218 289 b 244 75 249 185 247 130 b 244 -101 240 16 240 -42 b 272 -266 248 -156 254 -214 b 307 -326 279 -288 291 -309 b 348 -354 319 -339 333 -346 "},"|":{"ha":232,"x_min":0,"x_max":0,"o":"m 116 963 b 169 948 125 963 169 963 b 169 674 169 857 169 765 b 169 -302 169 349 169 24 b 116 -317 169 -317 124 -317 b 63 -302 106 -317 63 -317 b 63 -28 63 -210 63 -119 b 63 948 63 297 63 623 b 116 963 63 963 107 963 "},"}":{"ha":331,"x_min":0,"x_max":0,"o":"m 284 379 b 286 364 285 375 287 369 b 278 346 285 358 280 352 b 252 336 275 338 260 337 b 246 336 250 336 248 336 b 226 295 238 324 232 310 b 209 219 217 271 212 244 b 216 38 203 159 212 98 b 209 -144 220 -23 218 -84 b 161 -309 201 -199 192 -261 b -13 -368 125 -364 48 -382 b -19 -354 -20 -366 -29 -360 b 28 -320 -1 -345 15 -336 b 64 -244 47 -298 57 -271 b 85 98 93 -132 91 -16 b 104 258 81 152 82 209 b 143 318 114 279 126 301 b 191 354 157 331 174 344 b 171 373 183 359 176 364 b 155 405 164 383 160 394 b 134 475 145 427 139 451 b 125 753 117 567 131 661 b 105 891 123 799 121 848 b 75 934 99 907 89 924 b 72 935 74 934 73 935 b 40 912 57 931 47 927 b 28 912 39 909 27 910 b 35 927 30 918 32 922 b 37 939 38 932 35 934 b 54 953 38 946 48 951 b 159 945 86 965 128 958 b 245 818 211 923 233 870 b 257 648 258 762 257 704 b 262 488 256 594 257 541 b 275 414 265 463 270 439 b 284 379 277 402 281 391 m 67 938 b 67 938 66 938 65 938 "},"~":{"ha":399,"x_min":0,"x_max":0,"o":"m 355 367 b 378 322 369 355 382 342 b 356 282 375 307 368 292 b 209 256 318 250 255 248 b 116 317 168 264 140 285 b 114 319 115 318 115 319 b 119 307 115 315 116 311 b 77 289 129 292 82 289 b 20 303 67 289 22 287 b 88 363 14 340 59 359 b 222 328 138 369 182 357 b 252 304 233 320 242 312 b 262 322 256 309 260 316 b 271 345 265 330 268 338 b 283 367 274 353 279 359 b 319 375 287 376 311 375 b 355 367 330 375 346 375 m 280 286 b 281 286 282 285 284 284 b 280 286 281 286 280 286 "},"":{"ha":360,"x_min":0,"x_max":0,"o":""},"":{"ha":240,"x_min":0,"x_max":0,"o":"m 120 677 b 55 696 108 677 57 677 b 49 774 53 722 51 748 b 69 788 48 782 63 787 b 119 794 85 793 102 794 b 169 788 135 794 153 793 b 189 774 173 787 190 782 b 186 696 188 748 187 722 b 166 683 185 688 173 685 b 120 677 152 678 136 677 m 165 447 b 203 -222 179 224 194 1 b 180 -237 203 -231 187 -235 b 127 -244 163 -243 144 -243 b 73 -237 110 -244 90 -242 b 51 -222 68 -236 51 -231 b 54 -32 51 -159 52 -95 b 63 302 57 79 60 191 b 68 471 65 358 67 414 b 73 554 69 498 68 527 b 84 595 75 567 80 581 b 97 632 87 608 90 620 b 131 632 101 638 127 638 b 148 586 140 618 143 602 b 159 539 152 570 157 555 b 165 447 162 508 164 478 "},"":{"ha":446,"x_min":0,"x_max":0,"o":"m 394 234 b 411 234 395 238 412 236 b 353 147 405 198 384 167 b 289 124 334 135 312 127 b 293 88 290 112 292 100 b 299 47 295 75 297 61 b 303 29 300 41 301 35 b 298 9 305 19 305 17 b 261 1 290 0 271 1 b 224 9 250 1 232 1 b 217 47 212 20 217 32 b 218 88 218 61 218 75 b 216 126 218 101 217 113 b 52 253 144 139 82 184 b 72 481 22 324 27 418 b 170 551 96 515 131 539 b 177 553 172 552 175 553 b 162 661 173 589 167 625 b 215 677 160 676 208 677 b 269 661 225 677 269 677 b 268 561 268 628 268 594 b 303 554 280 560 292 558 b 346 532 318 550 334 543 b 358 517 351 528 354 522 b 374 498 363 510 369 505 b 410 403 397 471 409 438 b 396 403 411 400 396 400 b 358 497 394 438 381 471 b 269 540 338 520 301 537 b 270 496 269 525 269 511 b 277 333 273 442 275 388 b 286 171 280 279 283 225 b 289 136 287 160 288 148 b 345 163 309 140 329 151 b 394 234 368 181 386 205 m 196 172 b 214 157 202 167 208 162 b 213 171 214 162 213 166 b 199 333 209 225 205 279 b 184 496 194 388 189 442 b 184 499 184 497 184 498 b 149 440 168 481 157 459 b 147 248 126 381 125 308 b 196 172 157 220 174 193 "},"":{"ha":500,"x_min":0,"x_max":0,"o":"m 474 49 b 466 32 471 43 467 38 b 467 21 466 28 467 24 b 465 -7 467 11 467 2 b 443 -47 462 -22 454 -36 b 362 -67 421 -67 391 -71 b 251 -27 322 -62 289 -39 b 217 -22 239 -24 228 -21 b 182 -70 208 -40 197 -56 b 139 -77 172 -79 151 -78 b 113 -67 136 -76 113 -74 b 113 -67 113 -67 113 -67 b 113 -67 113 -67 113 -67 b 114 -66 113 -66 114 -66 b 135 1 118 -43 129 -22 b 147 71 142 24 146 47 b 141 222 152 122 149 172 b 133 269 139 238 136 254 b 72 267 113 268 92 268 b 35 278 67 267 35 268 b 72 289 35 289 66 289 b 129 287 91 288 110 288 b 78 510 113 362 91 435 b 68 658 69 558 65 609 b 97 766 70 696 77 733 b 201 833 120 804 157 826 b 329 812 243 840 293 838 b 362 776 343 802 353 789 b 394 726 373 759 385 744 b 435 600 414 687 425 643 b 419 600 435 597 420 596 b 371 737 408 647 396 695 b 265 814 349 776 310 805 b 205 774 239 820 218 796 b 184 682 190 747 186 712 b 218 421 178 594 199 505 b 246 283 228 375 238 329 b 361 280 284 282 323 281 b 361 274 372 279 372 274 b 248 272 323 274 285 273 b 257 157 254 234 257 196 b 240 39 256 117 251 77 b 220 -16 234 21 228 2 b 287 -32 243 -16 265 -23 b 418 -54 327 -50 375 -81 b 451 -9 434 -44 446 -28 b 453 16 453 -1 454 8 b 425 47 450 32 438 40 b 444 58 411 54 441 58 b 474 49 449 59 479 59 "},"":{"ha":617,"x_min":0,"x_max":0,"o":"m 602 -40 b 605 -46 607 -41 609 -43 b 584 -49 601 -50 589 -49 b 522 -46 564 -47 543 -46 b 522 -87 522 -60 522 -73 b 499 -193 521 -123 517 -160 b 396 -261 478 -232 439 -252 b 264 -255 354 -270 305 -270 b 156 -95 199 -229 166 -160 b 181 -95 156 -90 179 -89 b 243 -198 195 -133 214 -170 b 291 -232 257 -212 273 -224 b 319 -241 300 -236 310 -239 b 326 -242 322 -241 323 -241 b 326 -242 321 -244 324 -242 b 328 -242 326 -242 327 -242 b 326 -241 327 -242 326 -241 b 326 -241 326 -241 326 -241 b 326 -241 326 -241 326 -241 b 326 -241 325 -241 325 -241 b 324 -241 327 -241 327 -241 b 327 -241 326 -241 327 -241 b 330 -239 328 -240 329 -240 b 342 -232 334 -237 338 -235 b 369 -198 353 -223 363 -210 b 385 -105 382 -170 385 -136 b 384 -67 385 -93 385 -80 b 379 -69 383 -68 381 -68 b 332 -69 366 -74 346 -74 b 332 -55 320 -65 321 -59 b 384 -40 349 -49 366 -44 b 381 34 383 -15 382 9 b 309 41 357 36 333 38 b 294 58 301 42 279 49 b 353 62 310 68 335 65 b 380 60 362 61 371 60 b 377 144 379 88 378 116 b 372 381 375 223 373 302 b 371 376 372 379 371 377 b 348 254 364 335 355 295 b 310 162 342 222 333 187 b 208 129 284 133 245 126 b 98 181 167 131 124 147 b 61 292 74 212 67 254 b 47 422 53 335 49 379 b 44 682 42 509 43 595 b 62 695 44 689 56 693 b 107 700 76 699 92 700 b 151 695 121 700 137 699 b 169 682 155 693 169 689 b 178 419 170 594 171 507 b 189 306 181 382 185 344 b 208 203 193 272 196 236 b 230 164 213 189 220 175 b 240 155 233 161 236 157 b 254 161 245 156 249 158 b 274 176 261 165 268 170 b 304 217 287 188 296 202 b 338 322 321 250 329 286 b 364 433 347 358 356 395 b 371 466 367 444 369 455 b 372 668 371 533 371 601 b 390 680 372 675 384 679 b 435 686 404 685 420 686 b 497 668 446 686 496 686 b 512 340 504 558 509 449 b 520 60 515 247 518 154 b 563 62 534 61 548 62 b 581 50 569 63 601 57 b 520 37 561 43 541 39 b 522 -27 521 15 521 -6 b 602 -40 549 -29 576 -33 m 248 150 b 241 154 252 147 252 155 b 248 150 243 152 246 151 m 326 -241 b 330 -241 327 -241 328 -241 b 326 -241 328 -241 327 -241 b 326 -241 326 -241 326 -241 "},"":{"ha":453,"x_min":0,"x_max":0,"o":"m 406 678 b 405 639 406 665 404 652 b 404 606 407 627 408 618 b 364 594 400 593 373 594 b 323 606 360 594 319 597 b 333 625 326 613 328 619 b 349 646 338 632 345 639 b 366 688 357 658 363 674 b 374 768 373 713 378 742 b 339 837 371 796 360 818 b 267 874 319 855 293 867 b 252 877 262 875 257 876 b 249 877 254 877 257 877 b 249 877 249 877 254 877 b 249 878 249 877 249 878 b 248 877 248 878 248 878 b 246 877 247 877 247 877 b 243 877 245 877 244 877 b 242 876 243 877 243 877 b 199 848 226 871 212 860 b 153 737 170 819 154 778 b 307 499 153 635 247 569 b 362 373 335 466 367 419 b 278 286 357 332 316 298 b 244 281 267 283 256 281 b 300 215 261 256 282 234 b 373 53 342 171 387 119 b 243 -43 361 -5 300 -43 b 122 40 188 -44 137 -13 b 129 128 113 69 116 101 b 171 196 140 152 162 171 b 205 205 174 205 192 206 b 153 252 187 220 169 235 b 108 403 113 292 85 347 b 213 403 118 428 217 418 b 236 292 202 364 215 326 b 276 316 252 293 268 304 b 276 385 288 335 282 364 b 189 508 263 435 226 473 b 81 618 152 543 112 576 b 35 745 54 654 33 699 b 94 858 37 789 60 830 b 244 902 135 892 192 904 b 356 860 285 901 328 891 b 405 749 383 830 399 788 b 406 678 409 725 407 702 m 280 123 b 222 189 264 149 244 169 b 140 119 184 179 154 158 b 144 31 130 91 132 59 b 277 -17 165 -18 230 -56 b 280 123 322 19 306 82 "},"":{"ha":717,"x_min":0,"x_max":0,"o":"m 441 407 b 532 276 496 386 524 332 b 481 276 534 267 484 264 b 394 395 472 325 446 381 b 388 397 392 396 390 396 b 387 396 388 397 387 397 b 370 385 381 393 375 390 b 342 339 357 373 348 356 b 337 216 327 301 326 255 b 366 157 343 195 352 174 b 406 121 376 144 391 128 b 504 169 441 103 487 140 b 524 168 506 173 525 171 b 376 106 500 110 433 97 b 288 142 345 111 313 121 b 238 216 264 161 247 187 b 264 372 222 267 227 331 b 441 407 306 419 383 429 m 386 397 b 386 397 383 398 384 397 m 500 612 b 674 197 637 527 684 348 b 594 -12 668 121 643 47 b 417 -108 549 -65 486 -99 b 183 -47 334 -119 250 -98 b 60 139 121 -1 81 66 b 50 396 36 222 39 310 b 161 608 61 476 93 561 b 233 620 181 622 210 622 b 245 618 234 620 239 619 b 281 637 257 625 269 632 b 500 612 353 664 436 652 m 657 232 b 620 448 661 304 647 381 b 486 613 593 514 548 575 b 262 622 419 654 332 662 b 253 616 259 620 256 618 b 275 599 268 613 284 606 b 178 382 206 548 188 463 b 186 129 168 299 166 211 b 283 -36 202 66 235 7 b 355 -81 304 -55 328 -71 b 377 -87 362 -83 369 -85 b 385 -89 375 -87 386 -89 b 388 -89 383 -88 379 -88 b 424 -86 397 -90 412 -89 b 589 26 489 -71 551 -28 b 657 232 632 86 652 159 "},"":{"ha":492,"x_min":0,"x_max":0,"o":"m 306 260 b 309 248 314 254 314 254 b 309 244 310 247 311 245 b 307 241 309 242 308 241 b 295 236 304 238 298 237 b 252 235 281 233 266 233 b 208 252 236 238 221 241 b 187 269 201 257 194 263 b 140 308 171 282 156 295 b 29 384 105 335 69 366 b 22 391 25 385 23 387 b 50 422 27 404 39 412 b 83 454 62 432 73 443 b 140 531 105 478 124 503 b 170 542 145 539 162 540 b 221 544 187 545 204 545 b 267 520 229 543 279 538 b 199 443 247 492 224 466 b 122 388 176 421 151 401 b 162 356 133 375 149 365 b 211 321 178 343 195 333 b 267 285 230 309 248 297 b 296 266 276 279 286 273 b 306 260 299 264 303 262 m 464 260 b 467 248 472 254 472 254 b 467 244 468 247 468 245 b 465 241 467 242 466 241 b 453 236 462 238 456 237 b 410 235 439 233 424 233 b 366 252 394 238 379 241 b 345 269 359 257 352 263 b 298 308 329 282 314 295 b 187 384 263 335 227 366 b 180 391 183 385 181 387 b 208 422 185 404 197 412 b 241 454 219 432 231 443 b 298 531 263 478 282 503 b 328 542 303 539 320 540 b 379 544 345 545 362 545 b 425 520 387 543 437 538 b 357 443 405 492 382 466 b 280 388 334 421 309 401 b 320 356 291 375 307 365 b 369 321 336 343 353 333 b 425 285 387 309 406 297 b 454 266 434 279 444 273 b 464 260 457 264 461 262 "},"":{"ha":0,"x_min":0,"x_max":0,"o":""},"":{"ha":717,"x_min":0,"x_max":0,"o":"m 500 612 b 674 197 637 527 684 348 b 594 -12 668 121 643 47 b 417 -108 549 -65 486 -99 b 183 -47 334 -119 250 -98 b 60 139 121 -1 81 66 b 50 396 36 222 39 310 b 161 608 61 476 93 561 b 233 620 181 622 210 622 b 245 618 234 620 239 619 b 281 637 257 625 269 632 b 500 612 353 664 436 652 m 657 232 b 620 448 661 304 647 381 b 486 613 593 514 548 575 b 262 622 419 654 332 662 b 253 616 259 620 256 618 b 275 599 268 613 284 606 b 178 382 206 548 188 463 b 186 129 168 299 166 211 b 283 -36 202 66 235 7 b 355 -81 304 -55 328 -71 b 377 -87 362 -83 369 -85 b 385 -89 375 -87 386 -89 b 388 -89 383 -88 379 -88 b 424 -86 397 -90 412 -89 b 589 26 489 -71 551 -28 b 657 232 632 86 652 159 m 488 252 b 434 204 473 235 455 215 b 380 183 417 196 399 188 b 435 129 402 170 420 151 b 469 92 445 116 456 101 b 489 107 476 96 483 101 b 529 105 494 111 529 115 b 487 66 528 80 510 70 b 391 81 455 61 418 63 b 347 138 370 95 359 116 b 335 160 343 145 339 153 b 336 128 336 150 336 139 b 333 108 335 121 335 114 b 328 87 330 100 325 95 b 261 87 332 75 257 73 b 253 110 263 96 255 103 b 249 128 251 116 250 122 b 246 167 248 141 247 154 b 237 244 243 193 241 218 b 213 401 231 297 219 348 b 232 415 212 409 227 413 b 279 420 247 419 264 420 b 326 415 294 420 312 419 b 346 401 331 413 346 409 b 340 300 345 367 342 334 b 340 301 340 300 340 301 b 424 430 355 347 380 405 b 522 392 461 451 505 429 b 488 252 542 347 518 288 m 348 218 b 402 263 367 232 386 245 b 445 313 418 278 432 294 b 480 379 458 333 473 356 b 482 410 482 389 484 399 b 456 433 479 425 472 432 b 391 385 427 434 406 406 b 337 252 363 344 347 299 b 337 244 337 249 337 247 b 336 206 336 231 336 219 b 348 218 340 210 343 214 "},"":{"ha":392,"x_min":0,"x_max":0,"o":"m 345 849 b 307 663 377 788 362 706 b 93 669 248 617 153 632 b 52 863 31 709 8 802 b 249 909 95 920 186 942 b 249 907 251 908 250 907 b 345 849 288 905 324 889 m 232 906 b 173 892 205 919 190 910 b 232 906 192 899 212 905 m 312 693 b 331 849 348 736 357 799 b 272 900 318 873 298 892 b 165 881 236 910 198 897 b 164 881 165 881 165 881 b 141 812 150 861 143 835 b 187 672 137 759 153 713 b 238 650 199 657 218 646 b 312 693 267 654 293 671 "},"":{"ha":315,"x_min":0,"x_max":0,"o":"m 272 730 b 293 724 276 731 296 731 b 265 722 291 718 269 721 b 238 722 257 724 246 722 b 212 722 229 722 221 722 b 168 722 198 722 183 722 b 149 719 161 721 155 721 b 114 696 138 710 126 703 b 54 690 97 687 72 688 b 26 707 53 691 14 698 b 70 740 40 719 56 728 b 111 776 85 751 98 763 b 182 860 137 800 165 829 b 192 909 189 875 197 893 b 144 920 186 932 160 933 b 122 884 132 910 125 898 b 109 832 117 867 113 850 b 68 822 107 821 76 822 b 38 835 63 822 32 824 b 81 898 50 859 62 880 b 134 932 97 913 113 925 b 232 905 168 942 210 934 b 213 790 260 867 235 823 b 172 740 201 773 188 756 b 212 737 186 740 199 738 b 272 730 231 734 253 728 "},"":{"ha":256,"x_min":0,"x_max":0,"o":"m 214 760 b 216 692 227 739 232 713 b 136 665 197 669 164 665 b 37 697 101 666 66 678 b 59 716 18 709 51 715 b 101 716 73 718 88 718 b 123 707 108 714 119 713 b 140 690 128 701 133 695 b 145 687 142 689 144 688 b 160 697 151 690 159 696 b 172 718 166 703 170 710 b 157 766 176 736 170 753 b 102 789 141 783 123 785 b 82 803 98 790 74 794 b 109 824 89 812 100 817 b 131 843 116 830 124 836 b 153 893 144 857 153 874 b 147 916 153 901 152 910 b 146 918 147 917 146 917 b 122 865 130 905 126 884 b 67 851 118 849 77 851 b 28 869 62 852 18 854 b 102 935 47 898 67 925 b 187 922 129 942 166 943 b 209 856 205 905 215 880 b 171 800 204 835 189 814 b 187 787 176 796 181 791 b 214 760 198 779 208 771 m 139 685 b 142 685 139 684 140 684 b 139 685 140 685 139 686 "},"":{"ha":724,"x_min":0,"x_max":0,"o":"m 607 963 b 660 948 616 963 660 963 b 660 674 660 857 660 765 b 660 -302 660 349 660 24 b 607 -317 660 -317 616 -317 b 554 -302 598 -317 554 -317 b 554 -28 554 -210 554 -119 b 554 364 554 103 554 234 b 533 347 547 358 541 352 b 509 331 525 341 517 336 b 509 -302 509 120 509 -91 b 455 -317 509 -317 464 -317 b 402 -302 446 -317 402 -317 b 402 -28 402 -210 402 -119 b 402 298 402 81 402 190 b 377 297 394 298 385 297 b 80 452 259 296 143 352 b 60 765 20 547 13 664 b 340 945 111 875 222 936 b 402 945 360 947 381 947 b 402 948 402 946 402 947 b 455 963 402 963 447 963 b 509 948 465 963 509 963 b 509 911 509 936 509 923 b 554 878 525 901 540 890 b 554 948 554 902 554 925 b 607 963 554 963 599 963 m 402 309 b 402 927 402 515 402 721 b 330 914 378 927 353 923 b 185 441 150 843 95 602 b 402 309 229 363 308 300 m 554 386 b 554 867 554 546 554 707 b 509 899 540 879 525 890 b 509 674 509 824 509 749 b 509 347 509 565 509 456 b 554 386 525 358 541 371 "},"":{"ha":171,"x_min":0,"x_max":0,"o":"m 150 345 b 150 317 151 336 154 326 b 98 300 143 300 114 300 b 61 302 86 299 73 300 b 33 312 54 303 38 306 b 18 374 21 328 21 355 b 37 387 17 382 32 386 b 83 393 51 392 68 393 b 128 387 97 393 114 392 b 147 374 134 386 146 382 b 150 345 148 365 149 355 "},"":{"ha":207,"x_min":0,"x_max":0,"o":"m 177 733 b 163 693 178 718 178 701 b 92 687 143 682 114 680 b 62 718 76 691 63 699 b 68 765 61 733 66 750 b 81 854 71 795 74 825 b 88 879 83 862 85 871 b 45 876 77 873 53 875 b 28 891 39 877 13 882 b 147 909 58 909 122 962 b 177 733 173 855 172 791 "},"":{"ha":493,"x_min":0,"x_max":0,"o":"m 442 422 b 470 391 453 413 465 404 b 463 384 469 387 467 385 b 352 308 423 366 387 335 b 305 269 336 295 321 282 b 282 250 298 263 290 256 b 267 242 277 246 272 244 b 259 239 263 240 235 231 b 207 236 243 234 224 234 b 179 249 204 237 178 239 b 199 268 180 259 191 263 b 228 287 209 274 218 280 b 281 321 246 298 264 309 b 333 357 298 333 316 344 b 370 388 345 367 360 376 b 293 443 341 401 316 421 b 226 520 268 466 245 492 b 271 544 213 538 263 543 b 322 542 288 545 306 545 b 352 531 328 541 348 538 b 409 454 369 503 387 478 b 442 422 420 443 431 432 m 306 384 b 195 308 265 366 229 335 b 147 269 179 295 163 282 b 124 250 140 263 132 256 b 109 242 119 246 115 244 b 101 239 106 240 78 231 b 50 236 85 234 66 234 b 21 249 46 237 20 239 b 41 268 22 259 33 263 b 70 287 51 274 61 280 b 123 321 88 298 106 309 b 175 357 140 333 158 344 b 212 388 187 367 202 376 b 135 443 183 401 158 421 b 68 520 110 466 88 492 b 114 544 55 538 105 543 b 164 542 130 545 148 545 b 194 531 170 541 190 538 b 251 454 211 503 230 478 b 284 422 262 443 273 432 b 312 391 295 413 308 404 b 306 384 311 387 309 385 "},"":{"ha":668,"x_min":0,"x_max":0,"o":"m 636 103 b 627 -85 657 43 655 -27 b 519 -197 603 -133 567 -172 b 343 -232 466 -225 403 -234 b 71 -35 226 -227 89 -165 b 251 290 53 100 176 196 b 346 447 290 337 324 390 b 372 544 359 479 367 511 b 376 596 374 561 376 579 b 376 620 376 604 376 612 b 383 644 376 629 380 636 b 430 660 388 659 417 659 b 465 658 442 660 454 660 b 490 649 470 657 487 654 b 504 623 496 640 502 632 b 506 596 506 614 506 605 b 502 544 506 579 504 561 b 476 445 497 510 488 477 b 372 276 451 383 415 327 b 184 -22 297 188 187 104 b 369 -211 182 -123 269 -209 b 523 -168 422 -212 477 -196 b 588 -114 547 -154 570 -136 b 621 -36 605 -92 615 -63 b 592 125 632 18 622 77 b 533 187 577 149 555 170 b 489 212 519 198 506 205 b 446 233 475 218 461 226 b 443 248 437 237 436 242 b 475 258 451 255 465 256 b 529 257 493 260 512 260 b 557 246 538 255 550 253 b 580 215 567 236 575 228 b 600 181 584 203 594 193 b 636 103 614 156 626 131 m 446 707 b 381 726 433 707 382 707 b 374 804 378 752 376 778 b 395 819 374 813 389 817 b 445 825 411 824 428 824 b 494 819 460 825 479 823 b 515 804 499 817 515 812 b 511 726 514 778 512 752 b 492 713 511 718 498 715 b 446 707 477 708 461 708 "},"":{"ha":331,"x_min":0,"x_max":0,"o":"m 300 284 b 306 271 305 282 310 276 b 302 267 304 270 303 269 b 262 257 294 258 273 258 b 213 264 245 257 229 258 b 205 267 210 265 208 266 b 199 280 199 270 195 274 b 194 336 210 295 204 322 b 165 368 185 347 175 358 b 156 359 162 365 159 362 b 134 334 149 351 140 343 b 130 280 125 320 120 294 b 125 267 134 274 130 270 b 116 264 122 266 119 265 b 68 257 101 258 84 257 b 27 267 57 258 35 258 b 24 271 26 269 25 270 b 29 284 19 276 25 282 b 109 336 57 295 89 313 b 145 386 122 351 134 369 b 146 387 146 386 146 386 b 92 432 129 403 111 419 b 27 475 71 448 47 459 b 61 492 15 485 57 492 b 121 483 78 494 108 496 b 136 456 128 475 131 465 b 150 433 140 448 146 441 b 165 412 155 426 160 419 b 180 435 170 420 175 427 b 195 458 185 443 191 450 b 208 483 200 467 202 475 b 268 492 221 496 252 494 b 302 475 271 492 315 485 b 267 453 291 466 279 460 b 235 431 256 446 245 438 b 183 387 217 417 200 402 b 184 386 184 386 184 386 b 223 334 196 369 208 349 b 300 284 244 313 273 295 "},"":{"ha":224,"x_min":0,"x_max":0,"o":"m 112 963 b 165 948 121 963 165 963 b 165 674 165 857 165 765 b 165 -302 165 349 165 24 b 112 -317 165 -317 120 -317 b 58 -302 102 -317 58 -317 b 58 -28 58 -210 58 -119 b 58 948 58 297 58 623 b 112 963 58 963 103 963 "},"":{"ha":710,"x_min":0,"x_max":0,"o":"m 680 376 b 685 356 682 370 685 362 b 680 336 685 350 682 342 b 634 334 678 325 640 327 b 619 353 629 340 623 347 b 614 371 616 359 615 366 b 608 407 612 383 610 395 b 602 486 605 433 603 459 b 601 548 601 506 601 527 b 475 332 586 464 558 367 b 328 332 430 313 374 318 b 214 417 281 347 241 376 b 175 557 188 457 176 510 b 188 722 173 612 181 667 b 200 807 192 750 197 779 b 199 874 203 829 204 852 b 177 929 196 894 195 918 b 165 936 173 932 169 934 b 165 674 165 849 165 761 b 165 -302 165 349 165 24 b 112 -317 165 -317 120 -317 b 58 -302 102 -317 58 -317 b 58 -28 58 -210 58 -119 b 58 948 58 297 58 623 b 112 963 58 963 103 963 b 165 948 121 963 165 963 b 165 942 165 946 165 944 b 193 929 175 939 185 935 b 254 876 216 915 240 900 b 283 803 268 853 276 828 b 305 486 308 699 279 590 b 368 370 316 443 335 400 b 410 341 380 359 394 347 b 457 348 425 334 443 341 b 552 462 503 371 534 415 b 590 618 571 512 583 565 b 599 740 595 658 598 699 b 595 798 598 760 597 779 b 584 876 592 824 589 850 b 576 911 582 888 579 900 b 567 951 573 924 566 938 b 592 961 565 957 588 961 b 634 954 602 962 626 964 b 648 916 642 943 644 929 b 657 881 651 905 654 893 b 667 803 662 855 665 830 b 665 648 669 751 667 699 b 664 491 663 595 661 543 b 673 413 666 465 669 438 b 680 376 675 400 677 388 "},"":{"ha":364,"x_min":0,"x_max":0,"o":"m 306 402 b 348 371 311 402 349 401 b 306 339 347 339 314 339 b 57 339 223 339 140 339 b 14 371 52 339 13 341 b 57 402 15 403 48 402 b 306 402 140 402 223 402 "},"":{"ha":446,"x_min":0,"x_max":0,"o":"m 378 402 b 431 371 384 402 432 401 b 378 339 430 339 388 339 b 67 339 274 339 171 339 b 14 371 61 339 13 341 b 67 402 15 403 57 402 b 378 402 171 402 274 402 "},"":{"ha":179,"x_min":0,"x_max":0,"o":"m 156 951 b 160 932 158 945 161 939 b 141 918 160 924 146 919 b 112 896 121 912 120 911 b 106 885 110 893 109 889 b 93 866 102 879 98 872 b 56 836 83 853 70 843 b 43 838 53 835 39 836 b 69 914 68 855 89 887 b 33 924 56 915 42 917 b 21 946 26 930 25 938 b 78 971 10 968 68 970 b 156 951 97 971 146 974 "},"":{"ha":179,"x_min":0,"x_max":0,"o":"m 156 951 b 160 932 158 945 161 939 b 141 918 160 924 146 919 b 112 896 121 912 120 911 b 106 885 110 893 109 889 b 93 866 102 879 98 872 b 56 836 83 853 70 843 b 43 838 53 835 39 836 b 69 914 68 855 89 887 b 33 924 56 915 42 917 b 21 946 26 930 25 938 b 78 971 10 968 68 970 b 156 951 97 971 146 974 "},"":{"ha":172,"x_min":0,"x_max":0,"o":"m 152 49 b 156 30 154 42 156 37 b 137 16 156 22 142 17 b 108 -6 117 10 116 8 b 102 -17 106 -10 104 -13 b 89 -37 98 -24 94 -30 b 52 -66 79 -49 66 -59 b 39 -64 49 -67 35 -66 b 64 11 64 -48 85 -15 b 29 22 52 12 38 15 b 17 43 22 27 20 36 b 74 68 6 65 64 68 b 152 49 93 69 142 72 "},"":{"ha":335,"x_min":0,"x_max":0,"o":"m 78 971 b 156 951 97 971 146 974 b 160 932 158 945 161 939 b 141 918 160 924 146 919 b 112 896 121 912 120 911 b 106 885 110 893 109 889 b 93 866 102 879 98 872 b 56 836 83 853 70 843 b 43 838 53 835 39 836 b 69 914 68 855 89 887 b 33 924 56 915 42 917 b 21 946 26 930 25 938 b 78 971 10 968 68 970 m 311 951 b 315 932 313 945 315 939 b 296 918 315 924 301 919 b 267 896 276 912 275 911 b 261 885 265 893 263 889 b 248 866 257 879 253 872 b 211 836 238 853 225 843 b 198 838 208 835 194 836 b 224 914 223 855 244 887 b 188 924 211 915 197 917 b 176 946 181 930 180 938 b 233 971 165 968 223 970 b 311 951 252 971 301 974 "},"":{"ha":335,"x_min":0,"x_max":0,"o":"m 78 971 b 156 951 97 971 146 974 b 160 932 158 945 161 939 b 141 918 160 924 146 919 b 112 896 121 912 120 911 b 106 885 110 893 109 889 b 93 866 102 879 98 872 b 56 836 83 853 70 843 b 43 838 53 835 39 836 b 69 914 68 855 89 887 b 33 924 56 915 42 917 b 21 946 26 930 25 938 b 78 971 10 968 68 970 m 311 951 b 315 932 313 945 315 939 b 296 918 315 924 301 919 b 267 896 276 912 275 911 b 261 885 265 893 263 889 b 248 866 257 879 253 872 b 211 836 238 853 225 843 b 198 838 208 835 194 836 b 224 914 223 855 244 887 b 188 924 211 915 197 917 b 176 946 181 930 180 938 b 233 971 165 968 223 970 b 311 951 252 971 301 974 "},"":{"ha":329,"x_min":0,"x_max":0,"o":"m 74 77 b 152 58 93 78 142 81 b 156 38 154 51 156 45 b 137 25 156 31 142 26 b 108 3 117 19 116 17 b 102 -8 106 -1 104 -4 b 89 -28 98 -15 94 -21 b 52 -57 79 -40 66 -51 b 39 -55 49 -58 35 -57 b 64 20 64 -39 85 -6 b 29 31 52 21 38 24 b 17 52 22 36 20 45 b 74 77 6 74 64 77 m 306 58 b 311 38 309 51 311 45 b 292 25 311 31 296 26 b 263 3 272 19 270 17 b 257 -8 261 -1 259 -4 b 244 -28 253 -15 248 -21 b 207 -57 234 -40 221 -51 b 194 -55 204 -58 190 -57 b 219 20 219 -39 239 -6 b 184 31 206 21 193 24 b 172 52 177 36 175 45 b 229 77 160 74 219 77 b 306 58 248 78 297 81 "},"":{"ha":408,"x_min":0,"x_max":0,"o":"m 343 501 b 399 485 350 501 400 501 b 343 469 398 468 354 469 b 253 469 313 469 283 469 b 253 -230 253 236 253 3 b 200 -245 253 -245 209 -245 b 147 -230 191 -245 147 -245 b 147 -22 147 -161 147 -91 b 147 469 147 142 147 305 b 69 469 121 469 95 469 b 14 485 62 469 13 470 b 69 501 15 501 58 501 b 147 501 95 501 121 501 b 147 710 147 571 147 641 b 200 726 147 726 191 726 b 253 710 209 726 253 726 b 253 502 253 641 253 571 b 253 501 253 502 253 501 b 343 501 283 501 313 501 "},"":{"ha":318,"x_min":0,"x_max":0,"o":"m 241 426 b 292 346 276 414 301 384 b 219 279 283 309 254 287 b 56 298 168 266 101 267 b 28 383 30 316 16 352 b 126 439 43 424 86 436 b 173 438 142 441 157 440 b 191 434 177 437 184 436 b 241 426 208 433 225 431 "},"":{"ha":576,"x_min":0,"x_max":0,"o":"m 146 50 b 149 21 147 40 148 30 b 149 -8 150 11 153 1 b 97 -25 141 -24 113 -24 b 59 -23 84 -25 72 -25 b 32 -12 53 -22 37 -19 b 17 50 20 4 20 30 b 36 63 15 57 31 61 b 81 68 50 68 66 68 b 127 63 96 68 113 67 b 146 50 132 61 145 57 m 357 50 b 360 21 358 40 359 30 b 360 -8 362 11 364 1 b 309 -25 353 -24 324 -24 b 271 -23 296 -25 283 -25 b 243 -12 264 -22 248 -19 b 228 50 231 4 231 30 b 247 63 227 57 242 61 b 293 68 261 68 278 68 b 338 63 307 68 324 67 b 357 50 344 61 356 57 m 557 21 b 557 -8 558 11 561 1 b 505 -25 549 -24 520 -24 b 467 -23 492 -25 480 -25 b 440 -12 461 -22 445 -19 b 425 50 428 4 428 30 b 444 63 423 57 439 61 b 489 68 458 68 474 68 b 535 63 504 68 521 67 b 554 50 540 61 553 57 b 557 21 555 40 556 30 "},"":{"ha":565,"x_min":0,"x_max":0,"o":"m 470 153 b 531 153 467 164 534 166 b 505 50 523 118 511 85 b 476 -42 498 19 489 -13 b 431 -106 466 -66 453 -91 b 330 -121 403 -126 362 -126 b 198 -2 264 -110 224 -59 b 138 179 170 56 150 116 b 124 299 131 219 126 259 b 68 300 105 299 87 300 b 21 313 63 300 20 300 b 68 327 22 327 59 327 b 122 327 86 327 104 327 b 122 377 122 344 122 360 b 68 377 104 377 86 377 b 21 391 63 377 20 377 b 68 404 22 405 59 404 b 122 405 86 405 104 405 b 136 571 124 460 129 516 b 153 670 141 604 145 638 b 186 751 159 698 168 728 b 366 792 226 800 309 818 b 457 659 416 769 440 707 b 485 471 477 598 487 535 b 436 456 485 456 444 456 b 386 471 428 456 384 457 b 382 656 395 532 394 595 b 357 737 377 683 370 712 b 331 768 351 749 342 760 b 317 776 327 771 322 774 b 314 774 316 776 315 775 b 304 765 310 772 307 768 b 288 740 297 757 292 749 b 270 668 277 718 272 693 b 254 495 264 610 257 553 b 250 405 252 465 251 435 b 262 406 254 405 258 405 b 294 406 273 406 283 406 b 309 406 299 406 304 406 b 312 406 310 406 311 406 b 317 407 312 406 314 406 b 372 402 335 408 355 408 b 389 391 377 401 388 398 b 372 379 389 384 377 381 b 317 375 355 374 335 373 b 313 376 312 376 313 376 b 309 376 313 376 311 376 b 291 376 303 376 297 376 b 262 376 282 376 272 376 b 250 376 258 376 254 376 b 251 328 250 360 250 344 b 262 328 254 328 258 328 b 294 328 273 328 283 328 b 309 328 299 328 304 328 b 312 328 310 328 311 328 b 317 329 312 329 314 329 b 372 325 335 331 355 330 b 389 313 377 324 388 320 b 372 302 389 307 377 303 b 317 298 355 297 335 296 b 313 298 312 298 313 298 b 309 298 313 298 311 298 b 291 298 303 298 297 298 b 262 299 282 298 272 299 b 252 299 259 299 255 299 b 269 157 255 251 260 204 b 312 0 280 104 293 51 b 343 -68 320 -23 328 -47 b 365 -92 349 -77 357 -86 b 377 -99 369 -95 373 -97 b 382 -101 377 -100 379 -100 b 395 -94 387 -99 391 -97 b 422 -69 405 -87 414 -79 b 463 0 439 -48 452 -24 b 484 76 474 23 484 50 b 470 153 485 102 479 128 m 388 -104 b 389 -105 388 -104 389 -105 b 388 -104 389 -104 388 -104 "},"":{"ha":829,"x_min":0,"x_max":0,"o":"m 307 908 b 322 903 309 908 321 907 b 312 896 323 898 315 897 b 222 889 282 892 252 891 b 226 882 224 887 226 885 b 230 761 227 841 228 801 b 232 699 230 740 231 719 b 218 642 232 677 233 658 b 172 632 207 631 185 632 b 126 642 159 632 136 632 b 111 702 110 659 111 679 b 111 761 111 721 111 741 b 111 882 111 801 111 841 b 112 884 111 883 111 884 b 72 882 99 884 85 883 b 18 893 63 882 23 879 b 61 907 14 906 56 907 b 307 908 142 908 225 914 m 800 660 b 738 642 803 643 746 642 b 675 660 725 642 677 641 b 665 794 670 705 666 749 b 659 890 663 826 672 860 b 657 893 658 891 657 892 b 640 886 651 891 641 886 b 621 866 632 881 626 874 b 594 812 609 850 600 831 b 593 811 593 812 593 811 b 606 771 598 798 602 784 b 621 696 612 747 622 721 b 604 684 620 689 609 686 b 564 679 591 680 577 679 b 507 696 550 679 512 679 b 502 756 501 715 502 736 b 504 817 502 777 502 797 b 512 866 506 834 511 850 b 510 884 512 872 513 879 b 474 881 503 899 482 888 b 453 853 465 873 459 864 b 460 774 456 827 458 800 b 465 715 462 754 464 735 b 454 657 466 695 472 670 b 430 648 451 652 436 649 b 353 657 407 644 373 643 b 338 688 341 665 339 675 b 335 718 337 698 336 708 b 332 774 334 736 333 755 b 327 893 330 814 329 853 b 345 905 326 900 339 904 b 388 911 359 910 374 910 b 450 893 400 911 448 911 b 452 871 451 885 451 878 b 489 895 461 883 473 892 b 580 841 528 903 564 873 b 587 826 583 836 585 831 b 593 840 589 831 591 835 b 624 889 601 858 612 874 b 672 907 636 905 654 907 b 740 881 696 907 724 900 b 766 824 754 866 760 843 b 800 660 784 771 792 714 m 661 894 b 661 894 661 894 661 894 b 661 894 661 894 661 894 "}}}
